<?xml version="1.0" encoding="UTF-8"?>
<svg id="Layer_2" data-name="Layer 2" xmlns="http://www.w3.org/2000/svg" viewBox="0 0 1206.14 193.24">
  <defs>
    <style>
      .cls-1 {
        letter-spacing: .02em;
      }

      .cls-2 {
        letter-spacing: .03em;
      }

      .cls-2, .cls-3, .cls-4, .cls-5, .cls-6, .cls-7, .cls-8 {
        text-decoration: underline;
      }

      .cls-9, .cls-6 {
        letter-spacing: .02em;
      }

      .cls-10 {
        font-family: NeueMachina-Ultrabold, 'Neue Machina';
        font-size: 100px;
        font-weight: 700;
      }

      .cls-10, .cls-11 {
        fill: #fff;
      }

      .cls-12 {
        letter-spacing: .02em;
      }

      .cls-3 {
        letter-spacing: 0em;
      }

      .cls-13 {
        letter-spacing: .03em;
      }

      .cls-14 {
        fill: none;
      }

      .cls-4 {
        letter-spacing: 0em;
      }

      .cls-5 {
        letter-spacing: .01em;
      }

      .cls-11 {
        font-family: Garet-Book, Garet;
        font-size: 61px;
      }

      .cls-15 {
        fill: #dd622d;
      }

      .cls-16 {
        letter-spacing: -.03em;
      }

      .cls-17 {
        letter-spacing: .03em;
      }

      .cls-18 {
        letter-spacing: -.01em;
      }

      .cls-7 {
        letter-spacing: .03em;
      }

      .cls-19 {
        letter-spacing: -.09em;
      }

      .cls-20 {
        letter-spacing: 0em;
      }
    </style>
  </defs>
  <g id="Layer_1-2" data-name="Layer 1">
    <text class="cls-10" transform="translate(214.27 87.1) scale(.96 1)"><tspan class="cls-3" x="0" y="0">B</tspan><tspan class="cls-8" x="69.1" y="0">lo</tspan><tspan class="cls-3" x="183" y="0">c</tspan><tspan class="cls-7" x="244.7" y="0">k</tspan><tspan class="cls-5" x="314.6" y="0">F</tspan><tspan class="cls-8" x="375.9" y="0">lo</tspan><tspan class="cls-2" x="489.8" y="0">w </tspan><tspan class="cls-6" x="618.6" y="0">E</tspan><tspan class="cls-3" x="680.9" y="0">n</tspan><tspan class="cls-9" x="747.7" y="0">g</tspan><tspan class="cls-5" x="820.3" y="0">i</tspan><tspan class="cls-4" x="871.3" y="0">n</tspan><tspan class="cls-2" x="939.1" y="0" xml:space="preserve">e </tspan></text>
    <text class="cls-11" transform="translate(214.27 173.48)"><tspan class="cls-13" x="0" y="0">B</tspan><tspan class="cls-16" x="43.07" y="0">L</tspan><tspan class="cls-13" x="75.52" y="0">OCK</tspan><tspan class="cls-19" x="224.6" y="0">L</tspan><tspan class="cls-18" x="253.7" y="0">Y</tspan><tspan class="cls-17" x="291.58" y="0" xml:space="preserve"> P</tspan><tspan class="cls-12" x="350.62" y="0">R</tspan><tspan class="cls-13" x="393.63" y="0">OG</tspan><tspan class="cls-1" x="499.89" y="0">R</tspan><tspan class="cls-13" x="542.53" y="0">AMMIN</tspan><tspan class="cls-20" x="770.12" y="0">G</tspan></text>
    <path class="cls-14" d="M48.3,32.47c-.47,3.05-.76,8.96-.9,17.73-.13,8.57-.65,15.59-1.54,21.06-.9,5.48-2.66,10.14-5.28,13.99-2.62,3.85-6.42,7.34-11.4,10.46,4.71,2.92,8.4,6.19,11.06,9.81,2.65,3.62,4.51,8.23,5.58,13.84,1.06,5.61,1.59,12.8,1.59,21.56,0,6.57.15,11.42.45,14.54.3,3.12.9,5.49,1.79,7.12.9,1.63,1.98,2.69,3.24,3.19,1.14.45,3.02.89,5.62,1.31V24.03c-3.39.53-5.81,1.28-7.21,2.26-1.53,1.06-2.52,3.12-2.99,6.17Z"/>
    <path class="cls-15" d="M52.89,165.78c-1.26-.5-2.34-1.56-3.24-3.19-.9-1.63-1.49-4-1.79-7.12-.3-3.12-.45-7.97-.45-14.54,0-8.76-.53-15.95-1.59-21.56-1.06-5.61-2.92-10.22-5.58-13.84-2.66-3.62-6.34-6.89-11.06-9.81,4.98-3.12,8.78-6.61,11.4-10.46,2.62-3.85,4.38-8.52,5.28-13.99.9-5.48,1.41-12.5,1.54-21.06.13-8.76.43-14.67.9-17.73.46-3.05,1.46-5.11,2.99-6.17,1.86-1.3,3.97-1.43,6.11-1.91,1.67-.37,1.26-2.86,1.19-4.07-.15-2.35-.08-4.72-.08-7.08v-7.93c0-1.62,0-3.25,0-4.87,0-.11-2.17-.3-2.36-.32-.89-.08-1.78-.11-2.67-.11-9.36,0-16.85,2.74-22.46,8.22-5.61,5.48-8.52,12.8-8.71,21.96-.27,14.81-.47,24.15-.6,28.04-.13,3.88-.61,7.47-1.44,10.76-.83,3.29-2.26,5.98-4.28,8.07-2.03,2.09-5.43,4.63-10.21,7.62-3.85,2.46-5.78,6.14-5.78,11.06,0,3.39.66,5.86,1.99,7.42,1.33,1.56,3.57,3.32,6.72,5.28,3.15,1.96,5.71,4.07,7.67,6.32,1.96,2.26,3.44,5.61,4.43,10.06.4,1.79.7,5.74.9,11.85.2,6.11.4,14.21.6,24.3.07,5.98,1.39,11.27,3.98,15.89,2.59,4.61,6.26,8.18,11.01,10.71,4.75,2.52,10.14,3.79,16.18,3.79,1.55,0,3.08-.14,4.62-.35.11-.01.24-.03.32-.12.1-.1.1-.25.1-.38-.03-7.64.01-15.27.01-22.91,0-.13,0-.28-.08-.39-.1-.13-.27-.17-.44-.19-1.73-.28-3.49-.56-5.12-1.21Z"/>
    <path class="cls-15" d="M126.85,165.78c-1.26-.5-2.34-1.56-3.24-3.19-.9-1.63-1.49-4-1.79-7.12-.3-3.12-.45-7.97-.45-14.54,0-8.76-.53-15.95-1.59-21.56-1.06-5.61-2.92-10.22-5.58-13.84-2.66-3.62-6.34-6.89-11.06-9.81,4.98-3.12,8.78-6.61,11.4-10.46,2.62-3.85,4.38-8.52,5.28-13.99.9-5.48,1.41-12.5,1.54-21.06.13-8.76.43-14.67.9-17.73.46-3.05,1.46-5.11,2.99-6.17,1.86-1.3,3.97-1.43,6.11-1.91,1.67-.37,1.26-2.86,1.19-4.07-.15-2.35-.08-4.72-.08-7.08v-7.93c0-1.62,0-3.25,0-4.87,0-.11-2.17-.3-2.36-.32-.89-.08-1.78-.11-2.67-.11-9.36,0-16.85,2.74-22.46,8.22-5.61,5.48-8.52,12.8-8.71,21.96-.27,14.81-.47,24.15-.6,28.04-.13,3.88-.61,7.47-1.44,10.76-.83,3.29-2.26,5.98-4.28,8.07-2.03,2.09-5.43,4.63-10.21,7.62-3.85,2.46-5.78,6.14-5.78,11.06,0,3.39.66,5.86,1.99,7.42,1.33,1.56,3.57,3.32,6.72,5.28,3.15,1.96,5.71,4.07,7.67,6.32,1.96,2.26,3.44,5.61,4.43,10.06.4,1.79.7,5.74.9,11.85.2,6.11.4,14.21.6,24.3.07,5.98,1.39,11.27,3.98,15.89,2.59,4.61,6.26,8.18,11.01,10.71,4.75,2.52,10.14,3.79,16.18,3.79,1.55,0,3.08-.14,4.62-.35.11-.01.24-.03.32-.12.1-.1.1-.25.1-.38-.03-7.64.01-15.27.01-22.91,0-.13,0-.28-.08-.39-.1-.13-.27-.17-.44-.19-1.73-.28-3.49-.56-5.12-1.21Z"/>
  </g>
</svg>