<?xml version="1.0" encoding="UTF-8"?>
<svg id="Layer_1" xmlns="http://www.w3.org/2000/svg" version="1.1" viewBox="0 0 1366 255">
  <!-- Generator: Adobe Illustrator 29.0.1, SVG Export Plug-In . SVG Version: 2.1.0 Build 192)  -->
  <defs>
    <style>
      .st0 {
        fill: #fff;
      }

      .st1 {
        fill: none;
      }

      .st2 {
        fill: #dd622d;
      }
    </style>
  </defs>
  <g>
    <path class="st0" d="M246.5,118.9V48.4h23.8c9.9,0,17.1,1.2,21.4,3.7,4.4,2.4,6.5,7,6.5,13.6s-.2,3.4-.6,4.9c-.4,1.5-.8,2.7-1.3,3.6-.4.9-1.2,1.8-2.3,2.5-1.1.7-1.9,1.2-2.5,1.5-.6.3-1.6.6-3.2.9-1.6.3-2.6.4-3.1.5-.5,0-1.6.1-3.2.2v4c2.6,0,4.6.2,6.2.4,1.6.2,3.5.6,5.6,1.2,2.1.6,3.8,1.5,5,2.6,1.2,1.1,2.3,2.7,3.1,4.8.9,2.1,1.3,4.5,1.3,7.4s-.6,5.8-1.7,8.1c-1.1,2.3-2.6,4.1-4.4,5.4-1.8,1.3-4.1,2.4-7,3.2-2.8.8-5.7,1.3-8.6,1.6-2.9.3-6.3.4-10.1.4h-25ZM261.9,75.2h10.4c1.6,0,2.8,0,3.6,0,.8,0,1.7-.1,2.8-.3,1.1-.2,1.9-.5,2.4-1,.5-.4.9-1.1,1.3-1.9.4-.8.6-1.9.6-3.1s-.2-2.3-.6-3.2c-.4-.8-.8-1.5-1.3-1.9-.5-.4-1.3-.8-2.4-1-1.1-.2-2.1-.3-2.8-.4-.8,0-2,0-3.6,0h-10.4v12.8ZM261.9,104.9h11.5c2.3,0,4,0,5.1,0,1.1,0,2.4-.2,3.9-.5,1.5-.3,2.6-.7,3.2-1.2.6-.5,1.2-1.3,1.6-2.3s.7-2.3.7-3.8-.2-2.8-.7-3.8c-.5-1-1-1.8-1.6-2.4-.6-.5-1.7-.9-3.2-1.2-1.5-.3-2.8-.4-3.9-.4-1.1,0-2.8,0-5.1,0h-11.5v15.7Z"/>
    <path class="st0" d="M310,118.9v-14h13.4v-46.1l-11.5.6v-14l18.5-.7c2.7,0,4.8.6,6.2,2.1,1.4,1.4,2.2,3.5,2.2,6.3v51.8h13.4v14h-42.2Z"/>
    <path class="st0" d="M358,93.6c0-8.5,2.6-15,7.7-19.5s11.7-6.8,19.7-6.8,14.5,2.2,19.6,6.8,7.6,11,7.6,19.5-2.5,15-7.6,19.5c-5.1,4.5-11.6,6.8-19.6,6.8s-14.6-2.2-19.7-6.8-7.7-11-7.7-19.5ZM373.3,93.6c0,4.1,1.1,7.2,3.2,9.2,2.1,2,5.1,3,8.8,3s6.6-1,8.7-3c2.1-2,3.2-5.1,3.2-9.2s-1.1-7.1-3.2-9.2c-2.1-2-5-3-8.7-3s-6.7,1-8.8,3c-2.1,2-3.2,5.1-3.2,9.2Z"/>
    <path class="st0" d="M420.3,93.6c0-8.2,2.4-14.6,7.3-19.2,4.9-4.6,11.3-7,19.2-7s13.1,1.9,18,5.8c5,3.9,7.6,9.2,8,16.1h-15.4c-.3-2.3-1.4-4.2-3.3-5.7-1.9-1.5-4.3-2.2-7.3-2.2s-6.3,1.1-8.3,3.2c-1.9,2.1-2.9,5.1-2.9,9s.9,7,2.8,9.1c1.9,2.1,4.7,3.2,8.3,3.2s5.5-.7,7.3-2.2c1.9-1.5,3-3.4,3.3-5.7h15.4c-.3,6.9-3,12.2-8,16.1-5,3.9-11,5.8-18,5.8s-14.3-2.3-19.2-7c-4.9-4.6-7.3-11.1-7.3-19.3Z"/>
    <path class="st0" d="M519.5,118.9l-12.1-19.5-10.7,5.2v14.3h-15.4V45.4h15.4v42.7l22.2-10.6-.2-9.1h15.4v11c0,4.7-2,8-6,10l-7.5,3.6,16.4,25.9h-17.5Z"/>
    <path class="st0" d="M548.5,118.9V48.4h48.3v14h-32.9v20.3l30.7-2v14.2l-30.7,2v22h-15.4Z"/>
    <path class="st0" d="M604.5,118.9v-14h13.4v-46.1l-11.5.6v-14l18.5-.7c2.7,0,4.8.6,6.2,2.1,1.4,1.4,2.2,3.5,2.2,6.3v51.8h13.4v14h-42.2Z"/>
    <path class="st0" d="M652.5,93.6c0-8.5,2.6-15,7.7-19.5s11.7-6.8,19.7-6.8,14.5,2.2,19.6,6.8,7.6,11,7.6,19.5-2.5,15-7.6,19.5c-5.1,4.5-11.6,6.8-19.6,6.8s-14.6-2.2-19.7-6.8-7.7-11-7.7-19.5ZM667.9,93.6c0,4.1,1.1,7.2,3.2,9.2,2.1,2,5.1,3,8.8,3s6.6-1,8.7-3c2.1-2,3.2-5.1,3.2-9.2s-1.1-7.1-3.2-9.2c-2.1-2-5-3-8.7-3s-6.7,1-8.8,3c-2.1,2-3.2,5.1-3.2,9.2Z"/>
    <path class="st0" d="M711.9,68.4h14.7l6.2,46.5h3.8l3.7-46.5h32.1l3.7,46.5h3.8l6.3-46.5h14.6l-6.8,50.5h-32.1l-3.7-46.5h-3.8l-3.7,46.5h-32.1l-6.8-50.5Z"/>
    <path class="st0" d="M840.4,118.9V48.4h48.3v14h-32.9v14.2h28.1v14h-28.1v14.3h32.9v14h-48.3Z"/>
    <path class="st0" d="M929.4,81.4c-4.5,0-7.9,1.5-10.3,4.4-2.4,2.9-3.6,7.7-3.6,14.4v18.7h-15.4v-50.5h15.4v6.1l-2.9,9h3.8c1-4.8,3.1-8.7,6.2-11.7,3.1-3,7.2-4.5,12.1-4.5s11.2,2.1,14.6,6.3c3.5,4.2,5.2,10.2,5.2,17.9v27.3h-15.4v-24.8c0-4.6-.8-7.9-2.3-9.8-1.5-1.9-4.1-2.9-7.7-2.9Z"/>
    <path class="st0" d="M1021.1,68.4h4.2v14h-3.3c-2.1,0-3.6.3-4.5.9.9,1.3,1.3,3.2,1.3,5.8,0,4.5-1.9,8.4-5.6,11.6-3.7,3.2-9.2,6.1-16.3,8.6,4-.3,7.5,0,10.5.6,3,.7,5.6,2,7.7,4.2,2.1,2.1,3.1,4.8,3.1,8.2s-.4,4.6-1.3,6.4c-.9,1.8-2.4,3.3-4.5,4.6-2.1,1.2-4.4,2.2-7,2.9s-6,1.3-10.4,1.7-8.7.7-13.1.8-9.9.2-16.5.2v-14c16.1,0,26.4-.3,30.8-1,4.4-.7,6.6-2.3,6.6-5s-.9-2.9-2.7-3.6c-1.8-.8-4.2-1.1-7.3-.9-3.1.2-6.3.5-9.8,1s-7.1,1.1-11,1.8c-.6.1-1.1.2-1.4.3l-1.6-9c13.4-1.5,23.4-3,29.9-4.6v-4c-4.5,1.7-8.9,2.7-13.2,3.1-4.3.4-8.2.2-11.7-.7-3.5-.9-6.3-2.6-8.4-5.2-2.1-2.6-3.2-5.9-3.2-9.9,0-6.4,2.5-11.3,7.6-14.7,5.1-3.4,11.7-5,19.7-5s14.5,1.8,19.2,5.4c2.2-2.9,6.2-4.4,12.2-4.4ZM990.7,94.8c8.6,0,12.9-2.2,12.9-6.7s-4.3-6.7-12.9-6.7-13,2.2-13,6.7,4.3,6.7,13,6.7Z"/>
    <path class="st0" d="M1032.1,118.9v-14h13.7v-23.1l-11.8.6v-14l18.2-1c2.7-.1,4.8.5,6.2,2,1.4,1.5,2.2,3.6,2.2,6.4v29.1h13.7v14h-42.2ZM1058.7,61.3c-1.6,1.4-3.9,2.1-6.8,2.1s-5.1-.7-6.7-2c-1.6-1.4-2.4-3.3-2.4-6s.8-4.5,2.4-5.9c1.6-1.4,3.8-2.1,6.6-2.1s5.1.7,6.8,2.1c1.6,1.4,2.4,3.4,2.4,5.9s-.8,4.5-2.4,5.9Z"/>
    <path class="st0" d="M1112.2,81.4c-4.5,0-7.9,1.5-10.3,4.4-2.4,2.9-3.6,7.7-3.6,14.4v18.7h-15.4v-50.5h15.4v6.1l-2.9,9h3.8c1-4.8,3.1-8.7,6.2-11.7,3.1-3,7.2-4.5,12.1-4.5s11.2,2.1,14.6,6.3c3.5,4.2,5.2,10.2,5.2,17.9v27.3h-15.4v-24.8c0-4.6-.8-7.9-2.3-9.8-1.5-1.9-4.1-2.9-7.7-2.9Z"/>
    <path class="st0" d="M1146.1,93c0-7.9,2.4-14.1,7.1-18.7,4.7-4.6,10.9-6.9,18.5-6.9s13.8,2.2,18.5,6.7c4.7,4.4,7.1,10.4,7.1,18v5h-36.8c0,3,1.1,5.4,3.2,7.2,2.1,1.8,5.3,2.7,9.6,2.7s5.1-.5,6.9-1.5c1.9-1,3-2.4,3.5-4.3h15.4c-.3,1.9-1,4-2.1,6-1.2,2.1-2.7,4.1-4.8,6-2,1.9-4.7,3.5-8,4.8-3.3,1.3-6.9,1.9-10.9,1.9-8.8,0-15.6-2.6-20.2-7.7-4.6-5.1-7-11.5-7-19.2ZM1160.5,88h22.4c0-2.1-.9-3.9-2.6-5.4-1.8-1.5-4.6-2.2-8.6-2.2s-6.8.7-8.5,2.2c-1.7,1.4-2.6,3.2-2.6,5.5Z"/>
    <path class="st0" d="M240.8,131.4v-5h717.8v5H240.8Z"/>
    <path class="st0" d="M1028.2,131.4v-5h204.4v5h-204.4Z"/>
  </g>
  <g>
    <path class="st0" d="M247.7,162.6h16.2c3.9,0,7.1,1,9.4,3,2.3,2,3.5,4.7,3.5,8.1s-.6,4.3-1.7,6c-1.2,1.7-2.8,2.9-4.8,3.6,2.5.7,4.4,2,5.8,3.8,1.4,1.8,2,4,2,6.6s-1.2,6.4-3.6,8.5c-2.4,2.1-5.7,3.1-9.9,3.1h-16.9v-42.7ZM263.8,181.8c2.9,0,5.2-.7,6.8-2.1,1.6-1.4,2.4-3.3,2.4-5.8s-.8-4.4-2.4-5.8c-1.6-1.4-3.9-2.1-6.8-2.1h-12.4v15.7h12.4ZM264.4,201.8c3.1,0,5.5-.7,7.2-2.2s2.6-3.5,2.6-6.1-.9-4.7-2.6-6.1c-1.7-1.4-4.2-2.2-7.4-2.2h-12.9v16.6h13.1Z"/>
    <path class="st0" d="M290.7,162.6h3.7v39.2h21.7v3.5h-25.4v-42.7Z"/>
    <path class="st0" d="M330.8,203.3c-3.3-1.9-5.9-4.5-7.8-7.8-1.9-3.4-2.8-7.2-2.8-11.5s.9-8.1,2.8-11.5c1.9-3.4,4.5-6,7.8-7.8,3.3-1.9,7.1-2.8,11.4-2.8s8.1.9,11.5,2.8c3.3,1.9,5.9,4.5,7.8,7.8,1.8,3.4,2.8,7.2,2.8,11.5s-.9,8.1-2.8,11.5c-1.9,3.4-4.4,6-7.8,7.8-3.3,1.9-7.2,2.8-11.5,2.8s-8.1-.9-11.4-2.8ZM326.3,193.5c1.5,2.8,3.7,5,6.4,6.5,2.7,1.5,5.9,2.3,9.5,2.3s6.8-.8,9.5-2.3c2.8-1.5,4.9-3.7,6.5-6.5,1.5-2.8,2.3-6,2.3-9.6s-.8-6.8-2.3-9.6c-1.5-2.8-3.7-5-6.5-6.5-2.8-1.5-5.9-2.3-9.5-2.3s-6.7.8-9.5,2.3c-2.7,1.5-4.9,3.7-6.4,6.5-1.5,2.8-2.3,6-2.3,9.6s.8,6.8,2.3,9.6Z"/>
    <path class="st0" d="M384.4,203.3c-3.3-1.9-5.9-4.5-7.7-7.9-1.9-3.4-2.8-7.2-2.8-11.4s.9-8.1,2.8-11.4c1.8-3.4,4.4-6,7.7-7.9,3.3-1.9,7-2.8,11.2-2.8s9.2,1.3,12.9,4c3.7,2.6,6.3,6.2,7.7,10.7h-3.9c-1.2-3.4-3.3-6-6.3-8s-6.4-2.9-10.3-2.9-6.5.8-9.3,2.3c-2.7,1.5-4.8,3.7-6.4,6.5-1.5,2.8-2.3,6-2.3,9.6s.8,6.8,2.3,9.6c1.5,2.8,3.6,5,6.4,6.5,2.7,1.5,5.8,2.3,9.3,2.3s7.6-1,10.6-3c3-2,5.2-4.8,6.3-8.4h3.9c-.9,3-2.3,5.7-4.3,8-2,2.3-4.5,4-7.3,5.3-2.8,1.2-5.9,1.9-9.3,1.9s-7.9-.9-11.2-2.8Z"/>
    <path class="st0" d="M428.8,162.6h3.7v19.2h6.8c3.3,0,5.7-.6,7.4-1.7,1.7-1.1,3-3,4-5.6l4.5-11.9h3.9l-5.1,13.4c-.7,1.8-1.5,3.3-2.4,4.5-.9,1.2-2.1,2.2-3.4,2.9l12.7,21.9h-4.3l-11.9-20.6c-1.5.4-3.3.6-5.4.6h-6.8v19.9h-3.7v-42.7Z"/>
    <path class="st0" d="M472.3,162.6h3.7v39.2h21.7v3.5h-25.4v-42.7Z"/>
    <path class="st0" d="M512,189.6l-16.2-27h4.3l13.8,23.1,13.7-23.1h4.2l-16.2,26.9v15.8h-3.7v-15.7Z"/>
    <path class="st0" d="M557.4,162.6h13.5c5,0,8.8,1.2,11.6,3.7,2.8,2.5,4.1,5.9,4.1,10.3s-1.4,7.9-4.1,10.3c-2.8,2.5-6.6,3.7-11.6,3.7h-9.8v14.6h-3.7v-42.7ZM570.9,187.3c4,0,7-.9,9-2.7,2-1.8,3-4.4,3-7.9s-1-6.1-3-7.9c-2-1.8-5-2.7-9-2.7h-9.8v21.1h9.8Z"/>
    <path class="st0" d="M598.3,162.6h15.8c2.8,0,5.3.5,7.5,1.6,2.1,1.1,3.8,2.6,5,4.6,1.2,2,1.8,4.3,1.8,7s-1,6.4-2.9,8.7c-2,2.3-4.6,3.8-8,4.3l11.6,16.3h-4.5l-11.5-16h-11v16h-3.7v-42.7ZM613.7,185.7c3.4,0,6-.9,7.9-2.6,1.9-1.7,2.9-4.1,2.9-7.2s-1-5.4-2.9-7.1c-1.9-1.7-4.6-2.6-7.9-2.6h-11.7v19.6h11.7Z"/>
    <path class="st0" d="M648.9,203.3c-3.3-1.9-5.9-4.5-7.8-7.8-1.9-3.4-2.8-7.2-2.8-11.5s.9-8.1,2.8-11.5c1.9-3.4,4.5-6,7.8-7.8,3.3-1.9,7.1-2.8,11.4-2.8s8.1.9,11.5,2.8c3.3,1.9,5.9,4.5,7.8,7.8,1.8,3.4,2.8,7.2,2.8,11.5s-.9,8.1-2.8,11.5c-1.9,3.4-4.4,6-7.8,7.8-3.3,1.9-7.2,2.8-11.5,2.8s-8.1-.9-11.4-2.8ZM644.4,193.5c1.5,2.8,3.7,5,6.4,6.5,2.7,1.5,5.9,2.3,9.5,2.3s6.8-.8,9.5-2.3c2.8-1.5,4.9-3.7,6.5-6.5,1.5-2.8,2.3-6,2.3-9.6s-.8-6.8-2.3-9.6c-1.5-2.8-3.7-5-6.5-6.5-2.8-1.5-5.9-2.3-9.5-2.3s-6.7.8-9.5,2.3c-2.7,1.5-4.9,3.7-6.4,6.5-1.5,2.8-2.3,6-2.3,9.6s.8,6.8,2.3,9.6Z"/>
    <path class="st0" d="M702.4,203.3c-3.3-1.9-5.8-4.5-7.7-7.9-1.9-3.4-2.8-7.2-2.8-11.4s.9-8.1,2.7-11.4c1.8-3.4,4.4-6,7.7-7.9,3.3-1.9,7-2.8,11.1-2.8s9.2,1.3,12.8,3.8c3.7,2.6,6.2,5.9,7.6,10.1h-4c-1.3-3.2-3.4-5.7-6.3-7.5-2.8-1.8-6.1-2.7-9.9-2.7s-6.6.8-9.3,2.3c-2.7,1.5-4.8,3.7-6.3,6.5-1.5,2.8-2.3,6-2.3,9.6s.8,6.8,2.3,9.6c1.5,2.8,3.6,5,6.3,6.5,2.7,1.5,5.8,2.3,9.3,2.3s6.2-.7,8.7-2c2.6-1.4,4.6-3.3,6.1-5.7,1.5-2.4,2.4-5.2,2.7-8.3h-18.9v-3.5h22.9c0,4.5-.8,8.5-2.6,12-1.8,3.5-4.3,6.3-7.6,8.3-3.3,2-7,3-11.3,3s-7.9-.9-11.1-2.8Z"/>
    <path class="st0" d="M747.5,162.6h15.8c2.8,0,5.3.5,7.5,1.6,2.1,1.1,3.8,2.6,5,4.6,1.2,2,1.8,4.3,1.8,7s-1,6.4-2.9,8.7c-2,2.3-4.6,3.8-8,4.3l11.6,16.3h-4.5l-11.5-16h-11v16h-3.7v-42.7ZM763,185.7c3.4,0,6-.9,7.9-2.6,1.9-1.7,2.9-4.1,2.9-7.2s-1-5.4-2.9-7.1c-1.9-1.7-4.6-2.6-7.9-2.6h-11.7v19.6h11.7Z"/>
    <path class="st0" d="M802.3,162.6h3.5l17.7,42.7h-3.9l-4.5-10.7h-22.2l-4.4,10.7h-4l17.7-42.7ZM813.8,191.2l-9.7-23.5-9.6,23.5h19.3Z"/>
    <path class="st0" d="M833.7,162.6h3.5l17.8,26.7,17.8-26.7h3.4v42.7h-3.7v-35.9l-16,24h-3.1l-16-24v35.9h-3.7v-42.7Z"/>
    <path class="st0" d="M891.7,162.6h3.5l17.8,26.7,17.8-26.7h3.4v42.7h-3.7v-35.9l-16,24h-3.1l-16-24v35.9h-3.7v-42.7Z"/>
    <path class="st0" d="M949.7,162.6h3.7v42.7h-3.7v-42.7Z"/>
    <path class="st0" d="M969,162.6h3.5l26,36.3v-36.3h3.7v42.7h-3.5l-26-36.4v36.4h-3.7v-42.7Z"/>
    <path class="st0" d="M1025.2,203.3c-3.3-1.9-5.8-4.5-7.7-7.9-1.9-3.4-2.8-7.2-2.8-11.4s.9-8.1,2.7-11.4c1.8-3.4,4.4-6,7.7-7.9,3.3-1.9,7-2.8,11.1-2.8s9.2,1.3,12.8,3.8c3.7,2.6,6.2,5.9,7.6,10.1h-4c-1.3-3.2-3.4-5.7-6.3-7.5-2.8-1.8-6.1-2.7-9.9-2.7s-6.6.8-9.3,2.3c-2.7,1.5-4.8,3.7-6.3,6.5-1.5,2.8-2.3,6-2.3,9.6s.8,6.8,2.3,9.6c1.5,2.8,3.6,5,6.3,6.5,2.7,1.5,5.8,2.3,9.3,2.3s6.2-.7,8.7-2c2.6-1.4,4.6-3.3,6.1-5.7,1.5-2.4,2.4-5.2,2.7-8.3h-18.9v-3.5h22.9c0,4.5-.8,8.5-2.6,12-1.8,3.5-4.3,6.3-7.6,8.3-3.3,2-7,3-11.3,3s-7.9-.9-11.1-2.8Z"/>
  </g>
  <path class="st1" d="M74.8,64.3c-.5,3.1-.8,9-.9,17.7-.1,8.6-.6,15.6-1.5,21.1-.9,5.5-2.7,10.1-5.3,14-2.6,3.9-6.4,7.3-11.4,10.5,4.7,2.9,8.4,6.2,11.1,9.8,2.7,3.6,4.5,8.2,5.6,13.8,1.1,5.6,1.6,12.8,1.6,21.6s.1,11.4.4,14.5c.3,3.1.9,5.5,1.8,7.1.9,1.6,2,2.7,3.2,3.2,1.1.4,3,.9,5.6,1.3V55.9c-3.4.5-5.8,1.3-7.2,2.3-1.5,1.1-2.5,3.1-3,6.2Z"/>
  <path class="st2" d="M79.4,197.6c-1.3-.5-2.3-1.6-3.2-3.2-.9-1.6-1.5-4-1.8-7.1-.3-3.1-.4-8-.4-14.5s-.5-16-1.6-21.6c-1.1-5.6-2.9-10.2-5.6-13.8-2.7-3.6-6.3-6.9-11.1-9.8,5-3.1,8.8-6.6,11.4-10.5,2.6-3.9,4.4-8.5,5.3-14,.9-5.5,1.4-12.5,1.5-21.1.1-8.8.4-14.7.9-17.7.5-3.1,1.5-5.1,3-6.2,1.9-1.3,4-1.4,6.1-1.9,1.7-.4,1.3-2.9,1.2-4.1-.1-2.4,0-4.7,0-7.1v-7.9c0-1.6,0-3.2,0-4.9,0-.1-2.2-.3-2.4-.3-.9,0-1.8-.1-2.7-.1-9.4,0-16.8,2.7-22.5,8.2-5.6,5.5-8.5,12.8-8.7,22-.3,14.8-.5,24.2-.6,28-.1,3.9-.6,7.5-1.4,10.8-.8,3.3-2.3,6-4.3,8.1-2,2.1-5.4,4.6-10.2,7.6-3.9,2.5-5.8,6.1-5.8,11.1s.7,5.9,2,7.4c1.3,1.6,3.6,3.3,6.7,5.3,3.2,2,5.7,4.1,7.7,6.3,2,2.3,3.4,5.6,4.4,10.1.4,1.8.7,5.7.9,11.9.2,6.1.4,14.2.6,24.3,0,6,1.4,11.3,4,15.9,2.6,4.6,6.3,8.2,11,10.7,4.7,2.5,10.1,3.8,16.2,3.8,1.6,0,3.1-.1,4.6-.3.1,0,.2,0,.3-.1,0,0,.1-.2,0-.4,0-7.6,0-15.3,0-22.9,0-.1,0-.3,0-.4,0-.1-.3-.2-.4-.2-1.7-.3-3.5-.6-5.1-1.2Z"/>
  <path class="st2" d="M153.3,197.6c-1.3-.5-2.3-1.6-3.2-3.2-.9-1.6-1.5-4-1.8-7.1-.3-3.1-.4-8-.4-14.5s-.5-16-1.6-21.6c-1.1-5.6-2.9-10.2-5.6-13.8-2.7-3.6-6.3-6.9-11.1-9.8,5-3.1,8.8-6.6,11.4-10.5,2.6-3.9,4.4-8.5,5.3-14,.9-5.5,1.4-12.5,1.5-21.1.1-8.8.4-14.7.9-17.7.5-3.1,1.5-5.1,3-6.2,1.9-1.3,4-1.4,6.1-1.9,1.7-.4,1.3-2.9,1.2-4.1-.1-2.4,0-4.7,0-7.1v-7.9c0-1.6,0-3.2,0-4.9,0-.1-2.2-.3-2.4-.3-.9,0-1.8-.1-2.7-.1-9.4,0-16.8,2.7-22.5,8.2-5.6,5.5-8.5,12.8-8.7,22-.3,14.8-.5,24.2-.6,28-.1,3.9-.6,7.5-1.4,10.8-.8,3.3-2.3,6-4.3,8.1-2,2.1-5.4,4.6-10.2,7.6-3.9,2.5-5.8,6.1-5.8,11.1s.7,5.9,2,7.4c1.3,1.6,3.6,3.3,6.7,5.3,3.2,2,5.7,4.1,7.7,6.3,2,2.3,3.4,5.6,4.4,10.1.4,1.8.7,5.7.9,11.9.2,6.1.4,14.2.6,24.3,0,6,1.4,11.3,4,15.9,2.6,4.6,6.3,8.2,11,10.7,4.7,2.5,10.1,3.8,16.2,3.8,1.6,0,3.1-.1,4.6-.3.1,0,.2,0,.3-.1,0,0,.1-.2,0-.4,0-7.6,0-15.3,0-22.9,0-.1,0-.3,0-.4,0-.1-.3-.2-.4-.2-1.7-.3-3.5-.6-5.1-1.2Z"/>
</svg>