<?xml version="1.0" encoding="UTF-8"?>
<svg id="Layer_1" data-name="Layer 1" xmlns="http://www.w3.org/2000/svg" viewBox="0 0 1206.14 191.32">
  <defs>
    <style>
      .cls-1 {
        fill: none;
      }

      .cls-2 {
        fill: #ff7c24;
      }
    </style>
  </defs>
  <g>
    <path d="M220.03,87.1V16.6h23.81c9.92,0,17.05,1.22,21.41,3.65,4.35,2.43,6.53,6.98,6.53,13.65,0,1.8-.21,3.43-.62,4.9-.42,1.47-.85,2.67-1.3,3.6-.45.93-1.22,1.75-2.3,2.45-1.09.7-1.92,1.22-2.5,1.55-.58.33-1.65.63-3.22.9-1.57.27-2.59.42-3.07.45-.48.03-1.55.12-3.22.25v4c2.56.07,4.64.2,6.24.4,1.6.2,3.46.62,5.57,1.25,2.11.63,3.78,1.5,4.99,2.6,1.21,1.1,2.26,2.68,3.12,4.75.86,2.07,1.3,4.53,1.3,7.4,0,3.13-.56,5.83-1.68,8.1-1.12,2.27-2.58,4.07-4.37,5.4-1.79,1.33-4.11,2.4-6.96,3.2-2.85.8-5.73,1.33-8.64,1.6-2.91.27-6.29.4-10.13.4h-24.96ZM235.39,43.4h10.37c1.6,0,2.78-.02,3.55-.05.77-.03,1.71-.15,2.83-.35,1.12-.2,1.92-.52,2.4-.95.48-.43.91-1.07,1.3-1.9.38-.83.58-1.88.58-3.15s-.19-2.32-.58-3.15c-.38-.83-.82-1.47-1.3-1.9-.48-.43-1.28-.75-2.4-.95-1.12-.2-2.06-.32-2.83-.35-.77-.03-1.95-.05-3.55-.05h-10.37v12.8ZM235.39,73.1h11.52c2.3,0,4-.02,5.09-.05,1.09-.03,2.38-.18,3.89-.45,1.5-.27,2.56-.67,3.17-1.2.61-.53,1.15-1.3,1.63-2.3s.72-2.27.72-3.8-.24-2.82-.72-3.85c-.48-1.03-1.02-1.82-1.63-2.35-.61-.53-1.67-.93-3.17-1.2-1.5-.27-2.8-.42-3.89-.45-1.09-.03-2.78-.05-5.09-.05h-11.52v15.7Z"/>
    <path d="M283.49,87.1v-14h13.44V27.01l-11.52.6v-14l18.53-.7c2.69-.07,4.75.62,6.19,2.05,1.44,1.43,2.16,3.55,2.16,6.35v51.8h13.44v14h-42.24Z"/>
    <path d="M331.49,61.81c0-8.47,2.56-14.95,7.68-19.45s11.68-6.75,19.68-6.75,14.54,2.25,19.63,6.75,7.63,10.98,7.63,19.45-2.54,14.97-7.63,19.5c-5.09,4.53-11.63,6.8-19.63,6.8s-14.56-2.25-19.68-6.75-7.68-11.02-7.68-19.55ZM346.85,61.81c0,4.13,1.06,7.22,3.17,9.25,2.11,2.03,5.05,3.05,8.83,3.05s6.62-1.02,8.74-3.05c2.11-2.03,3.17-5.12,3.17-9.25s-1.06-7.12-3.17-9.15c-2.11-2.03-5.02-3.05-8.74-3.05s-6.72,1.02-8.83,3.05c-2.11,2.04-3.17,5.08-3.17,9.15Z"/>
    <path d="M393.79,61.81c0-8.2,2.43-14.62,7.3-19.25,4.86-4.63,11.26-6.95,19.2-6.95,7.04,0,13.06,1.93,18.05,5.8,4.99,3.87,7.65,9.23,7.97,16.1h-15.36c-.32-2.33-1.42-4.23-3.31-5.7-1.89-1.47-4.34-2.2-7.34-2.2-3.58,0-6.34,1.07-8.26,3.2-1.92,2.13-2.88,5.13-2.88,9s.94,6.97,2.83,9.1c1.89,2.13,4.66,3.2,8.3,3.2,3.01,0,5.46-.73,7.34-2.2,1.89-1.46,2.99-3.37,3.31-5.7h15.36c-.32,6.87-2.98,12.23-7.97,16.1-4.99,3.87-11.01,5.8-18.05,5.8-7.94,0-14.34-2.32-19.2-6.95-4.86-4.63-7.3-11.08-7.3-19.35Z"/>
    <path d="M493.05,87.1l-12.1-19.5-10.66,5.2v14.3h-15.36V13.6h15.36v42.7l22.18-10.6-.19-9.1h15.36v11c0,4.67-2.02,8-6.05,10l-7.49,3.6,16.42,25.9h-17.47Z"/>
    <path d="M522.04,87.1V16.6h48.29v14h-32.93v20.3l30.72-2v14.2l-30.72,2v22h-15.36Z"/>
    <path d="M578.01,87.1v-14h13.44V27.01l-11.52.6v-14l18.53-.7c2.69-.07,4.75.62,6.19,2.05,1.44,1.43,2.16,3.55,2.16,6.35v51.8h13.44v14h-42.24Z"/>
    <path d="M626.01,61.81c0-8.47,2.56-14.95,7.68-19.45s11.68-6.75,19.68-6.75,14.54,2.25,19.63,6.75,7.63,10.98,7.63,19.45-2.54,14.97-7.63,19.5c-5.09,4.53-11.63,6.8-19.63,6.8s-14.56-2.25-19.68-6.75-7.68-11.02-7.68-19.55ZM641.37,61.81c0,4.13,1.06,7.22,3.17,9.25,2.11,2.03,5.05,3.05,8.83,3.05s6.62-1.02,8.74-3.05c2.11-2.03,3.17-5.12,3.17-9.25s-1.06-7.12-3.17-9.15c-2.11-2.03-5.02-3.05-8.74-3.05s-6.72,1.02-8.83,3.05c-2.11,2.04-3.17,5.08-3.17,9.15Z"/>
    <path d="M685.44,36.6h14.69l6.24,46.5h3.84l3.74-46.5h32.06l3.74,46.5h3.84l6.34-46.5h14.59l-6.82,50.5h-32.06l-3.74-46.5h-3.84l-3.74,46.5h-32.06l-6.82-50.5Z"/>
    <path d="M813.88,87.1V16.6h48.29v14h-32.93v14.2h28.13v14h-28.13v14.3h32.93v14h-48.29Z"/>
    <path d="M902.88,49.6c-4.48,0-7.91,1.45-10.27,4.35-2.37,2.9-3.55,7.72-3.55,14.45v18.7h-15.36v-50.5h15.36v6.1l-2.88,9h3.84c1.02-4.8,3.1-8.68,6.24-11.65,3.13-2.97,7.17-4.45,12.1-4.45,6.27,0,11.15,2.1,14.64,6.3,3.49,4.2,5.23,10.17,5.23,17.9v27.3h-15.36v-24.8c0-4.6-.75-7.87-2.26-9.8-1.5-1.93-4.08-2.9-7.73-2.9Z"/>
    <path d="M994.65,36.6h4.22v14h-3.26c-2.11,0-3.62.3-4.51.9.9,1.27,1.34,3.2,1.34,5.8,0,4.53-1.87,8.4-5.62,11.6-3.74,3.2-9.17,6.07-16.27,8.6,3.97-.27,7.47-.07,10.51.6,3.04.67,5.6,2.05,7.68,4.15,2.08,2.1,3.12,4.85,3.12,8.25,0,2.47-.45,4.6-1.34,6.4-.9,1.8-2.38,3.32-4.46,4.55-2.08,1.23-4.42,2.21-7.01,2.95s-6.05,1.3-10.37,1.7-8.69.67-13.1.8-9.92.2-16.51.2v-14c16.13,0,26.38-.33,30.77-1,4.38-.67,6.58-2.33,6.58-5,0-1.67-.9-2.88-2.69-3.65-1.79-.77-4.22-1.07-7.3-.9-3.07.17-6.34.5-9.79,1s-7.14,1.08-11.04,1.75c-.64.13-1.12.23-1.44.3l-1.63-9c13.44-1.47,23.39-3,29.86-4.6v-4c-4.48,1.67-8.88,2.7-13.2,3.1-4.32.4-8.22.17-11.71-.7-3.49-.87-6.29-2.6-8.4-5.2-2.11-2.6-3.17-5.9-3.17-9.9,0-6.4,2.54-11.28,7.63-14.65,5.09-3.37,11.66-5.05,19.73-5.05s14.53,1.8,19.2,5.4c2.17-2.93,6.24-4.4,12.19-4.4ZM964.22,63.01c8.58,0,12.86-2.23,12.86-6.7s-4.29-6.7-12.86-6.7-12.96,2.23-12.96,6.7,4.32,6.7,12.96,6.7Z"/>
    <path d="M1005.6,87.1v-14h13.73v-23.1l-11.81.6v-14l18.24-1c2.69-.13,4.75.53,6.19,2,1.44,1.47,2.16,3.6,2.16,6.4v29.1h13.73v14h-42.24ZM1032.24,29.51c-1.63,1.4-3.89,2.1-6.77,2.1s-5.1-.68-6.67-2.05c-1.57-1.37-2.35-3.35-2.35-5.95s.8-4.5,2.4-5.9c1.6-1.4,3.81-2.1,6.62-2.1s5.14.7,6.77,2.1c1.63,1.4,2.45,3.37,2.45,5.9s-.82,4.5-2.45,5.9Z"/>
    <path d="M1085.66,49.6c-4.48,0-7.91,1.45-10.27,4.35-2.37,2.9-3.55,7.72-3.55,14.45v18.7h-15.36v-50.5h15.36v6.1l-2.88,9h3.84c1.02-4.8,3.1-8.68,6.24-11.65,3.13-2.97,7.17-4.45,12.1-4.45,6.27,0,11.15,2.1,14.64,6.3,3.49,4.2,5.23,10.17,5.23,17.9v27.3h-15.36v-24.8c0-4.6-.75-7.87-2.26-9.8-1.5-1.93-4.08-2.9-7.73-2.9Z"/>
    <path d="M1119.64,61.21c0-7.87,2.35-14.1,7.06-18.7,4.7-4.6,10.86-6.9,18.48-6.9s13.79,2.22,18.53,6.65c4.74,4.43,7.1,10.42,7.1,17.95v5h-36.77c0,3,1.07,5.4,3.22,7.2,2.14,1.8,5.33,2.7,9.55,2.7,2.75,0,5.06-.5,6.91-1.5,1.86-1,3.01-2.43,3.46-4.3h15.36c-.26,1.93-.96,3.95-2.11,6.05-1.15,2.1-2.74,4.12-4.75,6.05-2.02,1.93-4.67,3.54-7.97,4.8-3.3,1.27-6.93,1.9-10.9,1.9-8.83,0-15.57-2.57-20.21-7.7-4.64-5.13-6.96-11.53-6.96-19.2ZM1134.04,56.21h22.37c0-2.13-.88-3.93-2.64-5.4-1.76-1.47-4.62-2.2-8.59-2.2s-6.82.72-8.54,2.15c-1.73,1.43-2.59,3.25-2.59,5.45Z"/>
    <path d="M214.27,99.6v-5h717.79v5H214.27Z"/>
    <path d="M1001.76,99.6v-5h204.38v5h-204.38Z"/>
  </g>
  <g>
    <path d="M221.16,130.77h16.23c3.94,0,7.08,1.01,9.42,3.02,2.34,2.01,3.51,4.71,3.51,8.08,0,2.32-.58,4.31-1.74,5.98-1.16,1.67-2.78,2.87-4.85,3.6,2.48.73,4.4,2,5.76,3.81,1.36,1.81,2.04,4,2.04,6.56,0,3.58-1.21,6.42-3.63,8.51-2.42,2.1-5.7,3.14-9.85,3.14h-16.9v-42.7ZM237.27,149.99c2.93,0,5.21-.69,6.83-2.07,1.63-1.38,2.44-3.31,2.44-5.79s-.81-4.36-2.44-5.76c-1.63-1.4-3.88-2.1-6.77-2.1h-12.44v15.74h12.38ZM237.94,170c3.09,0,5.5-.73,7.23-2.2s2.59-3.5,2.59-6.1-.88-4.69-2.62-6.13c-1.75-1.44-4.21-2.17-7.38-2.17h-12.87v16.59h13.05Z"/>
    <path d="M264.23,130.77h3.72v39.16h21.65v3.54h-25.38v-42.7Z"/>
    <path d="M304.31,171.46c-3.33-1.87-5.94-4.48-7.81-7.84-1.87-3.35-2.81-7.19-2.81-11.5s.93-8.14,2.81-11.5c1.87-3.35,4.47-5.97,7.81-7.84,3.33-1.87,7.14-2.81,11.41-2.81s8.13.94,11.47,2.81c3.33,1.87,5.93,4.48,7.78,7.84,1.85,3.36,2.78,7.19,2.78,11.5s-.93,8.14-2.78,11.5c-1.85,3.36-4.44,5.97-7.78,7.84-3.33,1.87-7.16,2.81-11.47,2.81s-8.07-.93-11.41-2.81ZM299.79,161.7c1.54,2.81,3.69,4.98,6.44,6.53,2.75,1.55,5.91,2.32,9.49,2.32s6.75-.77,9.52-2.32c2.76-1.54,4.92-3.71,6.47-6.5,1.54-2.79,2.32-5.99,2.32-9.61s-.77-6.82-2.32-9.61c-1.55-2.79-3.7-4.95-6.47-6.5-2.77-1.54-5.94-2.32-9.52-2.32s-6.74.77-9.49,2.32c-2.75,1.55-4.89,3.71-6.44,6.5-1.55,2.79-2.32,5.99-2.32,9.61s.77,6.77,2.32,9.58Z"/>
    <path d="M357.86,171.43c-3.29-1.89-5.87-4.51-7.72-7.87-1.85-3.36-2.78-7.17-2.78-11.44s.92-8.08,2.78-11.44c1.85-3.36,4.42-5.98,7.72-7.87,3.29-1.89,7.01-2.84,11.16-2.84,4.88,0,9.18,1.32,12.9,3.97,3.72,2.64,6.27,6.2,7.66,10.67h-3.9c-1.22-3.38-3.31-6.04-6.28-7.99s-6.4-2.93-10.31-2.93c-3.46,0-6.55.77-9.27,2.32-2.72,1.55-4.85,3.72-6.37,6.53-1.53,2.81-2.29,6-2.29,9.58s.76,6.77,2.29,9.58c1.52,2.81,3.65,4.98,6.37,6.53,2.72,1.55,5.82,2.32,9.27,2.32,4.03,0,7.56-1.02,10.61-3.05,3.05-2.03,5.16-4.82,6.34-8.36h3.9c-.85,3.05-2.3,5.71-4.33,7.99-2.03,2.28-4.47,4.04-7.32,5.28-2.85,1.24-5.94,1.86-9.27,1.86-4.15,0-7.87-.95-11.16-2.84Z"/>
    <path d="M402.33,130.77h3.72v19.22h6.77c3.25,0,5.71-.57,7.38-1.71,1.67-1.14,3.01-3.01,4.03-5.61l4.51-11.9h3.9l-5.12,13.36c-.69,1.79-1.5,3.29-2.44,4.51-.94,1.22-2.07,2.2-3.42,2.93l12.75,21.9h-4.27l-11.89-20.56c-1.51.41-3.32.61-5.43.61h-6.77v19.95h-3.72v-42.7Z"/>
    <path d="M445.76,130.77h3.72v39.16h21.65v3.54h-25.38v-42.7Z"/>
    <path d="M485.47,157.8l-16.17-27.02h4.27l13.79,23.06,13.72-23.06h4.21l-16.17,26.9v15.8h-3.66v-15.68Z"/>
    <path d="M530.92,130.77h13.54c4.96,0,8.82,1.23,11.59,3.69,2.76,2.46,4.15,5.91,4.15,10.34s-1.38,7.88-4.15,10.34c-2.77,2.46-6.63,3.69-11.59,3.69h-9.82v14.64h-3.72v-42.7ZM544.4,155.42c3.99,0,6.99-.88,9.03-2.65,2.03-1.77,3.05-4.4,3.05-7.9s-1.02-6.13-3.05-7.9c-2.03-1.77-5.04-2.65-9.03-2.65h-9.76v21.11h9.76Z"/>
    <path d="M571.79,130.77h15.8c2.85,0,5.34.55,7.47,1.65,2.14,1.1,3.79,2.64,4.97,4.64,1.18,1.99,1.77,4.33,1.77,7.02,0,3.5-.98,6.4-2.93,8.72-1.95,2.32-4.62,3.76-7.99,4.33l11.59,16.35h-4.45l-11.47-16.04h-11.04v16.04h-3.72v-42.7ZM587.22,153.89c3.38,0,6.02-.87,7.93-2.62,1.91-1.75,2.87-4.15,2.87-7.2s-.96-5.39-2.87-7.14c-1.91-1.75-4.55-2.62-7.93-2.62h-11.71v19.58h11.71Z"/>
    <path d="M622.42,171.46c-3.33-1.87-5.94-4.48-7.81-7.84-1.87-3.35-2.81-7.19-2.81-11.5s.93-8.14,2.81-11.5c1.87-3.35,4.47-5.97,7.81-7.84,3.33-1.87,7.14-2.81,11.41-2.81s8.13.94,11.47,2.81c3.33,1.87,5.93,4.48,7.78,7.84,1.85,3.36,2.78,7.19,2.78,11.5s-.93,8.14-2.78,11.5c-1.85,3.36-4.44,5.97-7.78,7.84-3.33,1.87-7.16,2.81-11.47,2.81s-8.07-.93-11.41-2.81ZM617.9,161.7c1.54,2.81,3.69,4.98,6.44,6.53,2.75,1.55,5.91,2.32,9.49,2.32s6.75-.77,9.52-2.32c2.76-1.54,4.92-3.71,6.47-6.5,1.54-2.79,2.32-5.99,2.32-9.61s-.77-6.82-2.32-9.61c-1.55-2.79-3.7-4.95-6.47-6.5-2.77-1.54-5.94-2.32-9.52-2.32s-6.74.77-9.49,2.32c-2.75,1.55-4.89,3.71-6.44,6.5-1.55,2.79-2.32,5.99-2.32,9.61s.77,6.77,2.32,9.58Z"/>
    <path d="M675.95,171.43c-3.27-1.89-5.84-4.51-7.69-7.87-1.85-3.36-2.78-7.17-2.78-11.44s.92-8.08,2.75-11.44c1.83-3.36,4.38-5.98,7.66-7.87,3.27-1.89,6.96-2.84,11.07-2.84,4.88,0,9.15,1.28,12.81,3.84,3.66,2.56,6.18,5.94,7.56,10.13h-4.03c-1.34-3.21-3.43-5.72-6.25-7.53-2.83-1.81-6.13-2.71-9.91-2.71-3.5,0-6.6.77-9.3,2.32-2.71,1.55-4.81,3.71-6.31,6.5-1.5,2.79-2.26,5.99-2.26,9.61s.75,6.77,2.26,9.58c1.5,2.81,3.61,4.98,6.31,6.53,2.7,1.55,5.8,2.32,9.3,2.32,3.25,0,6.16-.68,8.72-2.04,2.56-1.36,4.61-3.25,6.13-5.67,1.53-2.42,2.41-5.17,2.65-8.27h-18.91v-3.54h22.88c.04,4.47-.83,8.47-2.62,11.99-1.79,3.52-4.32,6.27-7.59,8.27-3.27,1.99-7.05,2.99-11.32,2.99s-7.86-.95-11.13-2.84Z"/>
    <path d="M721.05,130.77h15.8c2.85,0,5.34.55,7.47,1.65,2.14,1.1,3.79,2.64,4.97,4.64,1.18,1.99,1.77,4.33,1.77,7.02,0,3.5-.98,6.4-2.93,8.72-1.95,2.32-4.62,3.76-7.99,4.33l11.59,16.35h-4.45l-11.47-16.04h-11.04v16.04h-3.72v-42.7ZM736.49,153.89c3.38,0,6.02-.87,7.93-2.62,1.91-1.75,2.87-4.15,2.87-7.2s-.96-5.39-2.87-7.14c-1.91-1.75-4.55-2.62-7.93-2.62h-11.71v19.58h11.71Z"/>
    <path d="M775.83,130.77h3.54l17.69,42.7h-3.9l-4.45-10.74h-22.2l-4.39,10.74h-3.96l17.69-42.7ZM787.3,159.32l-9.7-23.49-9.64,23.49h19.34Z"/>
    <path d="M807.19,130.77h3.48l17.75,26.72,17.75-26.72h3.42v42.7h-3.66v-35.87l-15.98,23.97h-3.05l-15.98-23.97v35.87h-3.72v-42.7Z"/>
    <path d="M865.2,130.77h3.48l17.75,26.72,17.75-26.72h3.42v42.7h-3.66v-35.87l-15.98,23.97h-3.05l-15.98-23.97v35.87h-3.72v-42.7Z"/>
    <path d="M923.21,130.77h3.72v42.7h-3.72v-42.7Z"/>
    <path d="M942.54,130.77h3.48l25.99,36.3v-36.3h3.66v42.7h-3.48l-25.99-36.36v36.36h-3.66v-42.7Z"/>
    <path d="M998.75,171.43c-3.27-1.89-5.84-4.51-7.69-7.87-1.85-3.36-2.78-7.17-2.78-11.44s.92-8.08,2.75-11.44c1.83-3.36,4.38-5.98,7.66-7.87,3.27-1.89,6.96-2.84,11.07-2.84,4.88,0,9.15,1.28,12.81,3.84,3.66,2.56,6.18,5.94,7.56,10.13h-4.03c-1.34-3.21-3.43-5.72-6.25-7.53-2.83-1.81-6.13-2.71-9.91-2.71-3.5,0-6.6.77-9.3,2.32-2.71,1.55-4.81,3.71-6.31,6.5-1.5,2.79-2.26,5.99-2.26,9.61s.75,6.77,2.26,9.58c1.5,2.81,3.61,4.98,6.31,6.53,2.7,1.55,5.8,2.32,9.3,2.32,3.25,0,6.16-.68,8.72-2.04,2.56-1.36,4.61-3.25,6.13-5.67,1.53-2.42,2.41-5.17,2.65-8.27h-18.91v-3.54h22.88c.04,4.47-.83,8.47-2.62,11.99-1.79,3.52-4.32,6.27-7.59,8.27-3.27,1.99-7.05,2.99-11.32,2.99s-7.86-.95-11.13-2.84Z"/>
  </g>
  <path class="cls-1" d="M48.3,32.47c-.47,3.05-.76,8.96-.9,17.73-.13,8.57-.65,15.59-1.54,21.06-.9,5.48-2.66,10.14-5.28,13.99-2.62,3.85-6.42,7.34-11.4,10.46,4.71,2.92,8.4,6.19,11.06,9.81,2.65,3.62,4.51,8.23,5.58,13.84,1.06,5.61,1.59,12.8,1.59,21.56,0,6.57.15,11.42.45,14.54.3,3.12.9,5.49,1.79,7.12.9,1.63,1.98,2.69,3.24,3.19,1.14.45,3.02.89,5.62,1.31V24.03c-3.39.53-5.81,1.28-7.21,2.26-1.53,1.06-2.52,3.12-2.99,6.17Z"/>
  <path class="cls-2" d="M58.01,166.99c.16.03.34.06.44.19.08.11.08.25.08.39,0,7.64-.05,15.27-.01,22.91,0,.14,0,.29-.1.38-.08.08-.2.1-.32.12-1.54.2-3.06.35-4.62.35-6.04,0-11.44-1.26-16.18-3.79-4.75-2.52-8.42-6.09-11.01-10.71-2.59-4.62-3.92-9.91-3.98-15.89-.2-10.09-.4-18.19-.6-24.3-.2-6.11-.5-10.06-.9-11.85-1-4.45-2.47-7.8-4.43-10.06-1.96-2.26-4.52-4.37-7.67-6.32-3.15-1.96-5.4-3.72-6.72-5.28-1.33-1.56-1.99-4.03-1.99-7.42,0-4.91,1.93-8.6,5.78-11.06,4.78-2.99,8.18-5.53,10.21-7.62,2.02-2.09,3.45-4.78,4.28-8.07.83-3.29,1.31-6.87,1.44-10.76.13-3.88.33-13.23.6-28.04.2-9.16,3.1-16.48,8.71-21.96C36.63,2.74,44.12,0,53.48,0c.89,0,1.78.03,2.67.11.19.02,2.36.21,2.36.32,0,1.62,0,3.25,0,4.87v7.93c0,2.36-.07,4.73.08,7.08.08,1.21.49,3.7-1.19,4.07-2.14.47-4.25.61-6.11,1.91-1.53,1.06-2.52,3.12-2.99,6.17-.47,3.05-.76,8.96-.9,17.73-.13,8.57-.65,15.59-1.54,21.06-.9,5.48-2.66,10.14-5.28,13.99-2.62,3.85-6.42,7.34-11.4,10.46,4.71,2.92,8.4,6.19,11.06,9.81,2.65,3.62,4.51,8.23,5.58,13.84,1.06,5.61,1.59,12.8,1.59,21.56,0,6.57.15,11.42.45,14.54.3,3.12.9,5.49,1.79,7.12.9,1.63,1.98,2.69,3.24,3.19,1.64.65,3.39.93,5.12,1.21ZM126.85,165.78c-1.26-.5-2.34-1.56-3.24-3.19-.9-1.63-1.49-4-1.79-7.12-.3-3.12-.45-7.97-.45-14.54,0-8.76-.53-15.95-1.59-21.56-1.06-5.61-2.92-10.22-5.58-13.84-2.66-3.62-6.34-6.89-11.06-9.81,4.98-3.12,8.78-6.61,11.4-10.46,2.62-3.85,4.38-8.52,5.28-13.99.9-5.48,1.41-12.5,1.54-21.06.13-8.76.43-14.67.9-17.73.46-3.05,1.46-5.11,2.99-6.17,1.86-1.3,3.97-1.43,6.11-1.91,1.67-.37,1.26-2.86,1.19-4.07-.15-2.35-.08-4.72-.08-7.08v-7.93c0-1.62,0-3.25,0-4.87,0-.11-2.17-.3-2.36-.32-.89-.08-1.78-.11-2.67-.11-9.36,0-16.85,2.74-22.46,8.22-5.61,5.48-8.52,12.8-8.71,21.96-.27,14.81-.47,24.15-.6,28.04-.13,3.88-.61,7.47-1.44,10.76-.83,3.29-2.26,5.98-4.28,8.07-2.03,2.09-5.43,4.63-10.21,7.62-3.85,2.46-5.78,6.14-5.78,11.06,0,3.39.66,5.86,1.99,7.42,1.33,1.56,3.57,3.32,6.72,5.28,3.15,1.96,5.71,4.07,7.67,6.32,1.96,2.26,3.44,5.61,4.43,10.06.4,1.79.7,5.74.9,11.85.2,6.11.4,14.21.6,24.3.07,5.98,1.39,11.27,3.98,15.89,2.59,4.61,6.26,8.18,11.01,10.71,4.75,2.52,10.14,3.79,16.18,3.79,1.55,0,3.08-.14,4.62-.35.11-.01.24-.03.32-.12.1-.1.1-.25.1-.38-.03-7.64.01-15.27.01-22.91,0-.13,0-.28-.08-.39-.1-.13-.27-.17-.44-.19-1.73-.28-3.49-.56-5.12-1.21Z"/>
</svg>