<?xml version="1.0" encoding="UTF-8"?>
<svg id="Layer_2" data-name="Layer 2" xmlns="http://www.w3.org/2000/svg" viewBox="0 0 104.65 88.29">
  <defs>
    <style>
      .cls-1 {
        fill: #fff;
      }
    </style>
  </defs>
  <g id="Layer_1-2" data-name="Layer 1">
    <path class="cls-1" d="M99.15,38.64H22.94L63.84,10.01c1.53-1.07,2.35-2.78,2.35-4.51,0-1.09-.32-2.19-1-3.15-1.74-2.49-5.17-3.09-7.66-1.35L2.35,39.64s-.05.05-.08.07c-.13.09-.25.19-.38.3-.04.04-.09.07-.13.11-.02.02-.05.04-.07.07-.09.08-.17.17-.25.26-.05.05-.1.11-.15.16-.1.11-.18.23-.27.35,0,.01-.02.02-.03.03,0,0,0,.02-.01.02-.01.02-.03.03-.04.05-.02.03-.04.06-.06.09-.09.14-.18.29-.26.44-.02.03-.04.07-.05.1-.02.04-.03.08-.05.11-.05.11-.1.23-.15.35-.02.06-.04.12-.06.18-.02.06-.05.12-.06.18,0,0,0,0,0,.01-.02.08-.04.15-.06.23-.01.06-.03.11-.04.17-.02.1-.04.2-.06.3-.01.06-.02.12-.03.18,0,.04-.01.08-.02.12-.02.2-.03.39-.04.6,0,0,0,0,0,.01,0,0,0,0,0,0,0,0,0,0,0,0s0,0,0,0c0,0,0,0,0,0,0,0,0,0,0,.01,0,.2.01.4.04.6,0,.04.01.08.02.12,0,.06.02.12.03.18.02.1.04.2.06.3.01.06.03.11.04.17.02.08.04.16.06.23,0,0,0,0,0,.01.02.06.04.12.06.18.02.06.04.12.06.18.05.12.1.23.15.35.02.04.03.08.05.11.02.04.04.07.05.1.08.15.16.3.26.44.02.03.04.06.06.09.01.02.03.03.04.05,0,0,0,.02.01.02.02.03.04.05.06.08.08.1.15.21.24.31.03.04.06.07.09.11.04.04.08.09.12.13.07.08.14.15.22.22.04.04.08.08.12.12.04.03.07.06.11.1.1.08.2.16.3.23.03.02.05.05.08.07l.08.05s.01,0,.02.01l55.09,38.58c.96.67,2.06,1,3.15,1,1.73,0,3.44-.82,4.51-2.35.67-.96,1-2.06,1-3.15,0-1.73-.82-3.44-2.35-4.51l-40.9-28.64h76.21c3.04,0,5.5-2.46,5.5-5.5s-2.46-5.5-5.5-5.5Z"/>
  </g>
</svg>