<?xml version="1.0" encoding="UTF-8"?>
<svg id="Layer_2" data-name="Layer 2" xmlns="http://www.w3.org/2000/svg" viewBox="0 0 251.45 316.67">
  <defs>
    <style>
      .cls-1 {
        fill: #fff;
      }

      .cls-2 {
        stroke: #fff;
        stroke-miterlimit: 10;
        stroke-width: 15px;
      }

      .cls-2, .cls-3 {
        fill: none;
      }
    </style>
  </defs>
  <g id="Layer_1-2" data-name="Layer 1">
    <path class="cls-1" d="M120.53,0h11.5c2.76,0,5,2.24,5,5v30.14c0,2.76-2.24,5-5,5h-11.5c-3.38,0-6.12-2.74-6.12-6.12V6.12c0-3.38,2.74-6.12,6.12-6.12Z"/>
    <path class="cls-2" d="M125.72,257.76h118.22s0-43.38,0-111.79c0-26.05-15.5-48.35-34.28-65.08-17.13-15.27-38.88-29.99-60.82-37.17-34.26-11.21-63.11,4.89-90.57,24.17-20.67,14.51-40.61,33.77-47.95,58.66-1.86,6.3-2.83,12.85-2.83,19.42v111.79h118.22"/>
    <path class="cls-3" d="M243.95,145.97c0-26.05-15.5-48.35-34.28-65.08-17.13-15.27-38.88-29.99-60.82-37.17-34.26-11.21-63.11,4.89-90.57,24.17-20.67,14.51-40.61,33.77-47.95,58.66-1.86,6.3-2.83,12.85-2.83,19.42v111.79h85.71c5.78-12.17,18.14-20.61,32.51-20.61s26.73,8.44,32.51,20.61h85.71v-111.79Z"/>
    <path class="cls-2" d="M93.21,257.76c-2.22,4.67-3.5,9.88-3.5,15.4,0,19.89,16.12,36.01,36.01,36.01s36.01-16.12,36.01-36.01c0-5.52-1.28-10.72-3.5-15.4h-65.02Z"/>
    <path class="cls-2" d="M93.21,257.76h65.02"/>
  </g>
</svg>