<?xml version="1.0" encoding="UTF-8"?>
<svg id="Layer_2" data-name="Layer 2" xmlns="http://www.w3.org/2000/svg" viewBox="0 0 382.03 348.78">
  <defs>
    <style>
      .cls-1 {
        fill: #fff;
      }
    </style>
  </defs>
  <g id="Layer_2-2" data-name="Layer 2">
    <path class="cls-1" d="M281.88,0c-55.31,0-100.15,44.84-100.15,100.15,0,19.86,5.78,38.36,15.75,53.93l-53.09,49.51c-.49-.98-1.11-1.92-1.87-2.78l-45.99-51.76c-4.75-5.34-12.92-5.82-18.26-1.08l-26.99,23.99,25.28,28.45c4.89,5.5,4.39,13.93-1.11,18.82h0c-5.5,4.89-13.93,4.39-18.82-1.11l-25.28-28.45-26.99,23.99c-5.34,4.75-5.82,12.92-1.08,18.26l45.99,51.76c1.51,1.7,3.37,2.9,5.38,3.61l-18.62,17.36c-10.29,9.6-10.85,25.72-1.26,36.01h0c9.6,10.29,25.72,10.85,36.01,1.26l164.3-153.24c13.97,7.4,29.89,11.59,46.8,11.59,55.31,0,100.15-44.84,100.15-100.15S337.19,0,281.88,0ZM281.88,140.21c-22.12,0-40.06-17.94-40.06-40.06s17.94-40.06,40.06-40.06,40.06,17.94,40.06,40.06-17.94,40.06-40.06,40.06Z"/>
  </g>
</svg>