<?xml version="1.0" encoding="UTF-8"?>
<svg id="Layer_2" data-name="Layer 2" xmlns="http://www.w3.org/2000/svg" viewBox="0 0 1206.1 191.7">
  <defs>
    <style>
      .cls-1 {
        fill: none;
      }

      .cls-2 {
        fill: #ff7c24;
      }
    </style>
  </defs>
  <g id="Layer_1-2" data-name="Layer 1">
    <g>
      <path d="M220,87.3V16.8h23.8c9.9,0,17.1,1.2,21.4,3.7,4.4,2.4,6.5,7,6.5,13.6s-.2,3.4-.6,4.9-.8,2.7-1.3,3.6c-.4.9-1.2,1.8-2.3,2.5-1.1.7-1.9,1.2-2.5,1.5s-1.6.6-3.2.9-2.6.4-3.1.5c-.5,0-1.6,0-3.2.2v4c2.6,0,4.6.2,6.2.4,1.6.2,3.5.6,5.6,1.2s3.8,1.5,5,2.6,2.3,2.7,3.1,4.8c.9,2.1,1.3,4.5,1.3,7.4s-.6,5.8-1.7,8.1c-1.1,2.3-2.6,4.1-4.4,5.4s-4.1,2.4-7,3.2c-2.8.8-5.7,1.3-8.6,1.6-2.9.3-6.3.4-10.1.4h-25,.1ZM235.4,43.6h14c.8,0,1.7,0,2.8-.3,1.1-.2,1.9-.5,2.4-1,.5-.4.9-1.1,1.3-1.9s.6-1.9.6-3.1-.2-2.3-.6-3.2c-.4-.8-.8-1.5-1.3-1.9s-1.3-.8-2.4-1-2.1-.3-2.8-.4h-14v12.8ZM235.4,73.3h16.6c1.1,0,2.4-.2,3.9-.5s2.6-.7,3.2-1.2,1.2-1.3,1.6-2.3.7-2.3.7-3.8-.2-2.8-.7-3.8-1-1.8-1.6-2.4c-.6-.5-1.7-.9-3.2-1.2-1.5-.3-2.8-.4-3.9-.4h-16.6v15.7h0v-.1Z"/>
      <path d="M283.5,87.3v-14h13.4V27.2l-11.5.6v-14l18.5-.7c2.7,0,4.8.6,6.2,2.1,1.4,1.4,2.2,3.5,2.2,6.3v51.8h13.4v14s-42.2,0-42.2,0Z"/>
      <path d="M331.5,62c0-8.5,2.6-15,7.7-19.5s11.7-6.8,19.7-6.8,14.5,2.2,19.6,6.8,7.6,11,7.6,19.5-2.5,15-7.6,19.5-11.6,6.8-19.6,6.8-14.6-2.2-19.7-6.8-7.7-11-7.7-19.5ZM346.8,62c0,4.1,1.1,7.2,3.2,9.2s5.1,3,8.8,3,6.6-1,8.7-3,3.2-5.1,3.2-9.2-1.1-7.1-3.2-9.2c-2.1-2-5-3-8.7-3s-6.7,1-8.8,3c-2.1,2-3.2,5.1-3.2,9.2Z"/>
      <path d="M393.8,62c0-8.2,2.4-14.6,7.3-19.2,4.9-4.6,11.3-7,19.2-7s13.1,1.9,18,5.8c5,3.9,7.6,9.2,8,16.1h-15.4c-.3-2.3-1.4-4.2-3.3-5.7s-4.3-2.2-7.3-2.2-6.3,1.1-8.3,3.2c-1.9,2.1-2.9,5.1-2.9,9s.9,7,2.8,9.1,4.7,3.2,8.3,3.2,5.5-.7,7.3-2.2c1.9-1.5,3-3.4,3.3-5.7h15.4c-.3,6.9-3,12.2-8,16.1s-11,5.8-18,5.8-14.3-2.3-19.2-7c-4.9-4.6-7.3-11.1-7.3-19.3,0,0,.1,0,.1,0Z"/>
      <path d="M493,87.3l-12.1-19.5-10.7,5.2v14.3h-15.4V13.8h15.4v42.7l22.2-10.6-.2-9.1h15.4v11c0,4.7-2,8-6,10l-7.5,3.6,16.4,25.9s-17.5,0-17.5,0Z"/>
      <path d="M522,87.3V16.8h48.3v14h-32.9v20.3l30.7-2v14.2l-30.7,2v22h-15.4,0Z"/>
      <path d="M578,87.3v-14h13.4V27.2l-11.5.6v-14l18.5-.7c2.7,0,4.8.6,6.2,2.1,1.4,1.4,2.2,3.5,2.2,6.3v51.8h13.4v14h-42.2Z"/>
      <path d="M626,62c0-8.5,2.6-15,7.7-19.5s11.7-6.8,19.7-6.8,14.5,2.2,19.6,6.8,7.6,11,7.6,19.5-2.5,15-7.6,19.5-11.6,6.8-19.6,6.8-14.6-2.2-19.7-6.8-7.7-11-7.7-19.5ZM641.4,62c0,4.1,1.1,7.2,3.2,9.2,2.1,2,5.1,3,8.8,3s6.6-1,8.7-3c2.1-2,3.2-5.1,3.2-9.2s-1.1-7.1-3.2-9.2c-2.1-2-5-3-8.7-3s-6.7,1-8.8,3-3.2,5.1-3.2,9.2Z"/>
      <path d="M685.4,36.8h14.7l6.2,46.5h3.8l3.7-46.5h32.1l3.7,46.5h3.8l6.3-46.5h14.6l-6.8,50.5h-32.1l-3.7-46.5h-3.8l-3.7,46.5h-32.1l-6.8-50.5h.1Z"/>
      <path d="M813.9,87.3V16.8h48.3v14h-32.9v14.2h28.1v14h-28.1v14.3h32.9v14h-48.3Z"/>
      <path d="M902.9,49.8c-4.5,0-7.9,1.5-10.3,4.4-2.4,2.9-3.6,7.7-3.6,14.4v18.7h-15.4v-50.5h15.4v6.1l-2.9,9h3.8c1-4.8,3.1-8.7,6.2-11.7,3.1-3,7.2-4.5,12.1-4.5s11.2,2.1,14.6,6.3c3.5,4.2,5.2,10.2,5.2,17.9v27.3h-15.4v-24.8c0-4.6-.8-7.9-2.3-9.8s-4.1-2.9-7.7-2.9h.3v.1Z"/>
      <path d="M994.6,36.8h4.2v14h-3.3c-2.1,0-3.6.3-4.5.9.9,1.3,1.3,3.2,1.3,5.8,0,4.5-1.9,8.4-5.6,11.6-3.7,3.2-9.2,6.1-16.3,8.6,4-.3,7.5,0,10.5.6,3,.7,5.6,2,7.7,4.2,2.1,2.1,3.1,4.8,3.1,8.2s-.4,4.6-1.3,6.4c-.9,1.8-2.4,3.3-4.5,4.6-2.1,1.2-4.4,2.2-7,2.9s-6,1.3-10.4,1.7-8.7.7-13.1.8-9.9.2-16.5.2v-14c16.1,0,26.4-.3,30.8-1,4.4-.7,6.6-2.3,6.6-5s-.9-2.9-2.7-3.6c-1.8-.8-4.2-1.1-7.3-.9s-6.3.5-9.8,1-7.1,1.1-11,1.8c-.6,0-1.1.2-1.4.3l-1.6-9c13.4-1.5,23.4-3,29.9-4.6v-4c-4.5,1.7-8.9,2.7-13.2,3.1s-8.2.2-11.7-.7c-3.5-.9-6.3-2.6-8.4-5.2-2.1-2.6-3.2-5.9-3.2-9.9,0-6.4,2.5-11.3,7.6-14.7,5.1-3.4,11.7-5,19.7-5s14.5,1.8,19.2,5.4c2.2-2.9,6.2-4.4,12.2-4.4h0v-.1ZM964.2,63.2c8.6,0,12.9-2.2,12.9-6.7s-4.3-6.7-12.9-6.7-13,2.2-13,6.7,4.3,6.7,13,6.7Z"/>
      <path d="M1005.6,87.3v-14h13.7v-23.1l-11.8.6v-14l18.2-1c2.7,0,4.8.5,6.2,2,1.4,1.5,2.2,3.6,2.2,6.4v29.1h13.7v14h-42.2,0ZM1032.2,29.7c-1.6,1.4-3.9,2.1-6.8,2.1s-5.1-.7-6.7-2c-1.6-1.4-2.4-3.3-2.4-6s.8-4.5,2.4-5.9,3.8-2.1,6.6-2.1,5.1.7,6.8,2.1c1.6,1.4,2.4,3.4,2.4,5.9s-.8,4.5-2.4,5.9h.1Z"/>
      <path d="M1085.7,49.8c-4.5,0-7.9,1.5-10.3,4.4s-3.6,7.7-3.6,14.4v18.7h-15.4v-50.5h15.4v6.1l-2.9,9h3.8c1-4.8,3.1-8.7,6.2-11.7s7.2-4.5,12.1-4.5,11.2,2.1,14.6,6.3c3.5,4.2,5.2,10.2,5.2,17.9v27.3h-15.4v-24.8c0-4.6-.8-7.9-2.3-9.8s-4.1-2.9-7.7-2.9h.3v.1Z"/>
      <path d="M1119.6,61.4c0-7.9,2.4-14.1,7.1-18.7s10.9-6.9,18.5-6.9,13.8,2.2,18.5,6.7c4.7,4.4,7.1,10.4,7.1,18v5h-36.8c0,3,1.1,5.4,3.2,7.2,2.1,1.8,5.3,2.7,9.6,2.7s5.1-.5,6.9-1.5c1.9-1,3-2.4,3.5-4.3h15.4c-.3,1.9-1,4-2.1,6-1.2,2.1-2.7,4.1-4.8,6-2,1.9-4.7,3.5-8,4.8s-6.9,1.9-10.9,1.9c-8.8,0-15.6-2.6-20.2-7.7s-7-11.5-7-19.2h0ZM1134,56.4h22.4c0-2.1-.9-3.9-2.6-5.4-1.8-1.5-4.6-2.2-8.6-2.2s-6.8.7-8.5,2.2c-1.7,1.4-2.6,3.2-2.6,5.5h-.1v-.1Z"/>
      <path d="M214.3,99.8v-5h717.8v5H214.3Z"/>
      <path d="M1001.7,99.8v-5h204.4v5h-204.4Z"/>
    </g>
    <g>
      <path d="M221.2,131h16.2c3.9,0,7.1,1,9.4,3s3.5,4.7,3.5,8.1-.6,4.3-1.7,6c-1.2,1.7-2.8,2.9-4.8,3.6,2.5.7,4.4,2,5.8,3.8s2,4,2,6.6-1.2,6.4-3.6,8.5-5.7,3.1-9.9,3.1h-16.9v-42.7h0ZM237.3,150.2c2.9,0,5.2-.7,6.8-2.1,1.6-1.4,2.4-3.3,2.4-5.8s-.8-4.4-2.4-5.8c-1.6-1.4-3.9-2.1-6.8-2.1h-12.4v15.7h12.4v.1ZM237.9,170.2c3.1,0,5.5-.7,7.2-2.2s2.6-3.5,2.6-6.1-.9-4.7-2.6-6.1c-1.7-1.4-4.2-2.2-7.4-2.2h-12.9v16.6h13.1,0Z"/>
      <path d="M264.2,131h3.7v39.2h21.7v3.5h-25.4v-42.7h0Z"/>
      <path d="M304.3,171.7c-3.3-1.9-5.9-4.5-7.8-7.8-1.9-3.4-2.8-7.2-2.8-11.5s.9-8.1,2.8-11.5,4.5-6,7.8-7.8c3.3-1.9,7.1-2.8,11.4-2.8s8.1.9,11.5,2.8c3.3,1.9,5.9,4.5,7.8,7.8,1.8,3.4,2.8,7.2,2.8,11.5s-.9,8.1-2.8,11.5-4.4,6-7.8,7.8c-3.3,1.9-7.2,2.8-11.5,2.8s-8.1-.9-11.4-2.8ZM299.8,161.9c1.5,2.8,3.7,5,6.4,6.5,2.7,1.5,5.9,2.3,9.5,2.3s6.8-.8,9.5-2.3c2.8-1.5,4.9-3.7,6.5-6.5,1.5-2.8,2.3-6,2.3-9.6s-.8-6.8-2.3-9.6-3.7-5-6.5-6.5-5.9-2.3-9.5-2.3-6.7.8-9.5,2.3c-2.7,1.5-4.9,3.7-6.4,6.5s-2.3,6-2.3,9.6.8,6.8,2.3,9.6Z"/>
      <path d="M357.9,171.7c-3.3-1.9-5.9-4.5-7.7-7.9-1.9-3.4-2.8-7.2-2.8-11.4s.9-8.1,2.8-11.4c1.8-3.4,4.4-6,7.7-7.9,3.3-1.9,7-2.8,11.2-2.8s9.2,1.3,12.9,4c3.7,2.6,6.3,6.2,7.7,10.7h-3.9c-1.2-3.4-3.3-6-6.3-8s-6.4-2.9-10.3-2.9-6.5.8-9.3,2.3c-2.7,1.5-4.8,3.7-6.4,6.5-1.5,2.8-2.3,6-2.3,9.6s.8,6.8,2.3,9.6,3.6,5,6.4,6.5c2.7,1.5,5.8,2.3,9.3,2.3s7.6-1,10.6-3,5.2-4.8,6.3-8.4h3.9c-.9,3-2.3,5.7-4.3,8s-4.5,4-7.3,5.3c-2.8,1.2-5.9,1.9-9.3,1.9s-7.9-.9-11.2-2.8v-.2h0Z"/>
      <path d="M402.3,131h3.7v19.2h6.8c3.3,0,5.7-.6,7.4-1.7,1.7-1.1,3-3,4-5.6l4.5-11.9h3.9l-5.1,13.4c-.7,1.8-1.5,3.3-2.4,4.5s-2.1,2.2-3.4,2.9l12.7,21.9h-4.3l-11.9-20.6c-1.5.4-3.3.6-5.4.6h-6.8v19.9h-3.7v-42.7h0v.1Z"/>
      <path d="M445.8,131h3.7v39.2h21.7v3.5h-25.4v-42.7h0Z"/>
      <path d="M485.5,158l-16.2-27h4.3l13.8,23.1,13.7-23.1h4.2l-16.2,26.9v15.8h-3.7v-15.7h.1Z"/>
      <path d="M530.9,131h13.5c5,0,8.8,1.2,11.6,3.7s4.1,5.9,4.1,10.3-1.4,7.9-4.1,10.3c-2.8,2.5-6.6,3.7-11.6,3.7h-9.8v14.6h-3.7v-42.7h0v.1ZM544.4,155.7c4,0,7-.9,9-2.7s3-4.4,3-7.9-1-6.1-3-7.9c-2-1.8-5-2.7-9-2.7h-9.8v21.1h9.8v.1Z"/>
      <path d="M571.8,131h15.8c2.8,0,5.3.5,7.5,1.6,2.1,1.1,3.8,2.6,5,4.6s1.8,4.3,1.8,7-1,6.4-2.9,8.7c-2,2.3-4.6,3.8-8,4.3l11.6,16.3h-4.5l-11.5-16h-11v16h-3.7v-42.7.2h-.1ZM587.2,154.1c3.4,0,6-.9,7.9-2.6,1.9-1.7,2.9-4.1,2.9-7.2s-1-5.4-2.9-7.1c-1.9-1.7-4.6-2.6-7.9-2.6h-11.7v19.6h11.7v-.1Z"/>
      <path d="M622.4,171.7c-3.3-1.9-5.9-4.5-7.8-7.8-1.9-3.4-2.8-7.2-2.8-11.5s.9-8.1,2.8-11.5c1.9-3.4,4.5-6,7.8-7.8,3.3-1.9,7.1-2.8,11.4-2.8s8.1.9,11.5,2.8c3.3,1.9,5.9,4.5,7.8,7.8,1.8,3.4,2.8,7.2,2.8,11.5s-.9,8.1-2.8,11.5c-1.9,3.4-4.4,6-7.8,7.8-3.3,1.9-7.2,2.8-11.5,2.8s-8.1-.9-11.4-2.8ZM617.9,161.9c1.5,2.8,3.7,5,6.4,6.5s5.9,2.3,9.5,2.3,6.8-.8,9.5-2.3c2.8-1.5,4.9-3.7,6.5-6.5,1.5-2.8,2.3-6,2.3-9.6s-.8-6.8-2.3-9.6-3.7-5-6.5-6.5-5.9-2.3-9.5-2.3-6.7.8-9.5,2.3c-2.7,1.5-4.9,3.7-6.4,6.5s-2.3,6-2.3,9.6.8,6.8,2.3,9.6Z"/>
      <path d="M675.9,171.7c-3.3-1.9-5.8-4.5-7.7-7.9s-2.8-7.2-2.8-11.4.9-8.1,2.7-11.4c1.8-3.4,4.4-6,7.7-7.9s7-2.8,11.1-2.8,9.2,1.3,12.8,3.8c3.7,2.6,6.2,5.9,7.6,10.1h-4c-1.3-3.2-3.4-5.7-6.3-7.5-2.8-1.8-6.1-2.7-9.9-2.7s-6.6.8-9.3,2.3-4.8,3.7-6.3,6.5-2.3,6-2.3,9.6.8,6.8,2.3,9.6,3.6,5,6.3,6.5,5.8,2.3,9.3,2.3,6.2-.7,8.7-2c2.6-1.4,4.6-3.3,6.1-5.7s2.4-5.2,2.7-8.3h-18.9v-3.5h22.9c0,4.5-.8,8.5-2.6,12s-4.3,6.3-7.6,8.3-7,3-11.3,3-7.9-.9-11.1-2.8h-.1v-.1Z"/>
      <path d="M721,131h15.8c2.8,0,5.3.5,7.5,1.6,2.1,1.1,3.8,2.6,5,4.6s1.8,4.3,1.8,7-1,6.4-2.9,8.7c-2,2.3-4.6,3.8-8,4.3l11.6,16.3h-4.5l-11.5-16h-11v16h-3.7v-42.7.2h-.1ZM736.5,154.1c3.4,0,6-.9,7.9-2.6,1.9-1.7,2.9-4.1,2.9-7.2s-1-5.4-2.9-7.1c-1.9-1.7-4.6-2.6-7.9-2.6h-11.7v19.6h11.7v-.1Z"/>
      <path d="M775.8,131h3.5l17.7,42.7h-3.9l-4.5-10.7h-22.2l-4.4,10.7h-4l17.7-42.7h.1ZM787.3,159.6l-9.7-23.5-9.6,23.5h19.3Z"/>
      <path d="M807.2,131h3.5l17.8,26.7,17.8-26.7h3.4v42.7h-3.7v-35.9l-16,24h-3.1l-16-24v35.9h-3.7v-42.7h0Z"/>
      <path d="M865.2,131h3.5l17.8,26.7,17.8-26.7h3.4v42.7h-3.7v-35.9l-16,24h-3.1l-16-24v35.9h-3.7v-42.7h0Z"/>
      <path d="M923.2,131h3.7v42.7h-3.7v-42.7Z"/>
      <path d="M942.5,131h3.5l26,36.3v-36.3h3.7v42.7h-3.5l-26-36.4v36.4h-3.7v-42.7h0Z"/>
      <path d="M998.7,171.7c-3.3-1.9-5.8-4.5-7.7-7.9s-2.8-7.2-2.8-11.4.9-8.1,2.7-11.4c1.8-3.4,4.4-6,7.7-7.9,3.3-1.9,7-2.8,11.1-2.8s9.2,1.3,12.8,3.8c3.7,2.6,6.2,5.9,7.6,10.1h-4c-1.3-3.2-3.4-5.7-6.3-7.5-2.8-1.8-6.1-2.7-9.9-2.7s-6.6.8-9.3,2.3c-2.7,1.5-4.8,3.7-6.3,6.5s-2.3,6-2.3,9.6.8,6.8,2.3,9.6,3.6,5,6.3,6.5,5.8,2.3,9.3,2.3,6.2-.7,8.7-2c2.6-1.4,4.6-3.3,6.1-5.7s2.4-5.2,2.7-8.3h-18.9v-3.5h22.9c0,4.5-.8,8.5-2.6,12-1.8,3.5-4.3,6.3-7.6,8.3-3.3,2-7,3-11.3,3s-7.9-.9-11.1-2.8h0l-.1-.1Z"/>
    </g>
    <path class="cls-1" d="M48.3,32.7c-.5,3.1-.8,9-.9,17.7,0,8.6-.6,15.6-1.5,21.1s-2.7,10.1-5.3,14c-2.6,3.9-6.4,7.3-11.4,10.5,4.7,2.9,8.4,6.2,11.1,9.8,2.7,3.6,4.5,8.2,5.6,13.8s1.6,12.8,1.6,21.6,0,11.4.4,14.5.9,5.5,1.8,7.1,2,2.7,3.2,3.2c1.1.4,3,.9,5.6,1.3V24.3c-3.4.5-5.8,1.3-7.2,2.3-1.5,1.1-2.5,3.1-3,6.2h0v-.1Z"/>
    <path class="cls-2" d="M58,167.2c.2,0,.3,0,.4.2v23.7s-.2.1-.3.1c-1.5.2-3.1.3-4.6.3-6,0-11.4-1.3-16.2-3.8-4.7-2.5-8.4-6.1-11-10.7-2.6-4.6-3.9-9.9-4-15.9-.2-10.1-.4-18.2-.6-24.3-.2-6.1-.5-10.1-.9-11.9-1-4.4-2.5-7.8-4.4-10.1-2-2.3-4.5-4.4-7.7-6.3-3.2-2-5.4-3.7-6.7-5.3-1.3-1.6-2-4-2-7.4,0-4.9,1.9-8.6,5.8-11.1,4.8-3,8.2-5.5,10.2-7.6s3.5-4.8,4.3-8.1c.8-3.3,1.3-6.9,1.4-10.8,0-3.9.3-13.2.6-28,.2-9.2,3.1-16.5,8.7-22C36.6,2.7,44.1,0,53.5,0s1.8,0,2.7.1,2.4.2,2.4.3v19.9c0,2.4.5,3.7-1.2,4.1-2.1.5-4.2.6-6.1,1.9-1.5,1.1-2.5,3.1-3,6.2s-.8,9-.9,17.7c0,8.6-.6,15.6-1.5,21.1s-2.7,10.1-5.3,14c-2.6,3.9-6.4,7.3-11.4,10.5,4.7,2.9,8.4,6.2,11.1,9.8,2.7,3.6,4.5,8.2,5.6,13.8s1.6,12.8,1.6,21.6,0,11.4.4,14.5.9,5.5,1.8,7.1,2,2.7,3.2,3.2c1.6.7,3.4.9,5.1,1.2,0,0,0,.2,0,.2ZM126.8,166c-1.3-.5-2.3-1.6-3.2-3.2-.9-1.6-1.5-4-1.8-7.1s-.4-8-.4-14.5-.5-16-1.6-21.6-2.9-10.2-5.6-13.8c-2.7-3.6-6.3-6.9-11.1-9.8,5-3.1,8.8-6.6,11.4-10.5,2.6-3.9,4.4-8.5,5.3-14,.9-5.5,1.4-12.5,1.5-21.1.1-8.8.4-14.7.9-17.7.5-3.1,1.5-5.1,3-6.2,1.9-1.3,4-1.4,6.1-1.9,1.7-.4,1.3-2.9,1.2-4.1-.1-2.4,0-4.7,0-7.1V.6s-2.2-.3-2.4-.3c-.9,0-1.8-.1-2.7-.1-9.4,0-16.8,2.7-22.5,8.2-5.6,5.5-8.5,12.8-8.7,22-.3,14.8-.5,24.2-.6,28,0,3.9-.6,7.5-1.4,10.8s-2.3,6-4.3,8.1-5.4,4.6-10.2,7.6c-3.9,2.5-5.8,6.1-5.8,11.1s.7,5.9,2,7.4c1.3,1.6,3.6,3.3,6.7,5.3,3.2,2,5.7,4.1,7.7,6.3,2,2.3,3.4,5.6,4.4,10.1.4,1.8.7,5.7.9,11.9.2,6.1.4,14.2.6,24.3,0,6,1.4,11.3,4,15.9,2.6,4.6,6.3,8.2,11,10.7s10.1,3.8,16.2,3.8,3.1-.1,4.6-.3c.1,0,.2,0,.3-.1,0,0,.1-.2,0-.4v-23.3c0-.1-.3-.2-.4-.2-1.7-.3-3.5-.6-5.1-1.2v-.2h0Z"/>
  </g>
</svg>