<?xml version="1.0" encoding="UTF-8"?>
<svg id="Layer_2" data-name="Layer 2" xmlns="http://www.w3.org/2000/svg" viewBox="0 0 315.64 50.17">
  <defs>
    <style>
      .cls-1 {
        fill: none;
      }

      .cls-2 {
        fill: #ff7c24;
      }
    </style>
  </defs>
  <g id="Layer_1-2" data-name="Layer 1">
    <g>
      <path d="M57.58,22.85V4.4h6.23c2.59,0,4.48.31,5.6.97,1.15.63,1.7,1.83,1.7,3.56s-.05.89-.16,1.28-.21.71-.34.94c-.1.24-.31.47-.6.65-.29.18-.5.31-.65.39s-.42.16-.84.24-.68.1-.81.13c-.13,0-.42,0-.84.05v1.05c.68,0,1.2.05,1.62.1.42.05.92.16,1.47.31s.99.39,1.31.68.6.71.81,1.26c.24.55.34,1.18.34,1.94s-.16,1.52-.44,2.12c-.29.6-.68,1.07-1.15,1.41s-1.07.63-1.83.84c-.73.21-1.49.34-2.25.42-.76.08-1.65.1-2.64.1h-6.54.03ZM61.61,11.41h3.66c.21,0,.44,0,.73-.08.29-.05.5-.13.63-.26.13-.1.24-.29.34-.5s.16-.5.16-.81-.05-.6-.16-.84c-.1-.21-.21-.39-.34-.5s-.34-.21-.63-.26-.55-.08-.73-.1h-3.66v3.35ZM61.61,19.18h4.34c.29,0,.63-.05,1.02-.13s.68-.18.84-.31.31-.34.42-.6.18-.6.18-.99-.05-.73-.18-.99-.26-.47-.42-.63c-.16-.13-.44-.24-.84-.31-.39-.08-.73-.1-1.02-.1h-4.34v4.11h0v-.03Z"/>
      <path d="M74.19,22.85v-3.66h3.51V7.12l-3.01.16v-3.66l4.84-.18c.71,0,1.26.16,1.62.55.37.37.58.92.58,1.65v13.56h3.51v3.66s-11.04,0-11.04,0Z"/>
      <path d="M86.76,16.23c0-2.22.68-3.93,2.02-5.1s3.06-1.78,5.16-1.78,3.79.58,5.13,1.78,1.99,2.88,1.99,5.1-.65,3.93-1.99,5.1-3.04,1.78-5.13,1.78-3.82-.58-5.16-1.78-2.02-2.88-2.02-5.1ZM90.76,16.23c0,1.07.29,1.88.84,2.41s1.33.79,2.3.79,1.73-.26,2.28-.79.84-1.33.84-2.41-.29-1.86-.84-2.41c-.55-.52-1.31-.79-2.28-.79s-1.75.26-2.3.79c-.55.52-.84,1.33-.84,2.41Z"/>
      <path d="M103.06,16.23c0-2.15.63-3.82,1.91-5.02,1.28-1.2,2.96-1.83,5.02-1.83s3.43.5,4.71,1.52c1.31,1.02,1.99,2.41,2.09,4.21h-4.03c-.08-.6-.37-1.1-.86-1.49s-1.13-.58-1.91-.58-1.65.29-2.17.84c-.5.55-.76,1.33-.76,2.36s.24,1.83.73,2.38,1.23.84,2.17.84,1.44-.18,1.91-.58c.5-.39.79-.89.86-1.49h4.03c-.08,1.81-.79,3.19-2.09,4.21s-2.88,1.52-4.71,1.52-3.74-.6-5.02-1.83c-1.28-1.2-1.91-2.9-1.91-5.05,0,0,.03,0,.03,0Z"/>
      <path d="M129.02,22.85l-3.17-5.1-2.8,1.36v3.74h-4.03V3.61h4.03v11.17l5.81-2.77-.05-2.38h4.03v2.88c0,1.23-.52,2.09-1.57,2.62l-1.96.94,4.29,6.78s-4.58,0-4.58,0Z"/>
      <path d="M136.61,22.85V4.4h12.64v3.66h-8.61v5.31l8.03-.52v3.72l-8.03.52v5.76h-4.03,0Z"/>
      <path d="M151.27,22.85v-3.66h3.51V7.12l-3.01.16v-3.66l4.84-.18c.71,0,1.26.16,1.62.55.37.37.58.92.58,1.65v13.56h3.51v3.66h-11.04Z"/>
      <path d="M163.83,16.23c0-2.22.68-3.93,2.02-5.1s3.06-1.78,5.16-1.78,3.79.58,5.13,1.78,1.99,2.88,1.99,5.1-.65,3.93-1.99,5.1-3.04,1.78-5.13,1.78-3.82-.58-5.16-1.78-2.02-2.88-2.02-5.1ZM167.86,16.23c0,1.07.29,1.88.84,2.41.55.52,1.33.79,2.3.79s1.73-.26,2.28-.79c.55-.52.84-1.33.84-2.41s-.29-1.86-.84-2.41c-.55-.52-1.31-.79-2.28-.79s-1.75.26-2.3.79-.84,1.33-.84,2.41Z"/>
      <path d="M179.37,9.63h3.85l1.62,12.17h.99l.97-12.17h8.4l.97,12.17h.99l1.65-12.17h3.82l-1.78,13.22h-8.4l-.97-12.17h-.99l-.97,12.17h-8.4l-1.78-13.22h.03Z"/>
      <path d="M213,22.85V4.4h12.64v3.66h-8.61v3.72h7.35v3.66h-7.35v3.74h8.61v3.66h-12.64Z"/>
      <path d="M236.29,13.03c-1.18,0-2.07.39-2.7,1.15-.63.76-.94,2.02-.94,3.77v4.89h-4.03v-13.22h4.03v1.6l-.76,2.36h.99c.26-1.26.81-2.28,1.62-3.06.81-.79,1.88-1.18,3.17-1.18s2.93.55,3.82,1.65c.92,1.1,1.36,2.67,1.36,4.68v7.14h-4.03v-6.49c0-1.2-.21-2.07-.6-2.56s-1.07-.76-2.02-.76h.08v.03Z"/>
      <path d="M260.29,9.63h1.1v3.66h-.86c-.55,0-.94.08-1.18.24.24.34.34.84.34,1.52,0,1.18-.5,2.2-1.47,3.04-.97.84-2.41,1.6-4.27,2.25,1.05-.08,1.96,0,2.75.16.79.18,1.47.52,2.02,1.1.55.55.81,1.26.81,2.15s-.1,1.2-.34,1.67c-.24.47-.63.86-1.18,1.2-.55.31-1.15.58-1.83.76s-1.57.34-2.72.44-2.28.18-3.43.21-2.59.05-4.32.05v-3.66c4.21,0,6.91-.08,8.06-.26,1.15-.18,1.73-.6,1.73-1.31s-.24-.76-.71-.94c-.47-.21-1.1-.29-1.91-.24s-1.65.13-2.56.26-1.86.29-2.88.47c-.16,0-.29.05-.37.08l-.42-2.36c3.51-.39,6.12-.79,7.83-1.2v-1.05c-1.18.44-2.33.71-3.45.81s-2.15.05-3.06-.18c-.92-.24-1.65-.68-2.2-1.36-.55-.68-.84-1.54-.84-2.59,0-1.67.65-2.96,1.99-3.85,1.33-.89,3.06-1.31,5.16-1.31s3.79.47,5.02,1.41c.58-.76,1.62-1.15,3.19-1.15h0v-.03ZM252.34,16.54c2.25,0,3.38-.58,3.38-1.75s-1.13-1.75-3.38-1.75-3.4.58-3.4,1.75,1.13,1.75,3.4,1.75Z"/>
      <path d="M263.17,22.85v-3.66h3.59v-6.05l-3.09.16v-3.66l4.76-.26c.71,0,1.26.13,1.62.52.37.39.58.94.58,1.67v7.62h3.59v3.66h-11.04,0ZM270.13,7.77c-.42.37-1.02.55-1.78.55s-1.33-.18-1.75-.52c-.42-.37-.63-.86-.63-1.57s.21-1.18.63-1.54.99-.55,1.73-.55,1.33.18,1.78.55c.42.37.63.89.63,1.54s-.21,1.18-.63,1.54h.03Z"/>
      <path d="M284.13,13.03c-1.18,0-2.07.39-2.7,1.15s-.94,2.02-.94,3.77v4.89h-4.03v-13.22h4.03v1.6l-.76,2.36h.99c.26-1.26.81-2.28,1.62-3.06s1.88-1.18,3.17-1.18,2.93.55,3.82,1.65c.92,1.1,1.36,2.67,1.36,4.68v7.14h-4.03v-6.49c0-1.2-.21-2.07-.6-2.56s-1.07-.76-2.02-.76h.08v.03Z"/>
      <path d="M293.01,16.07c0-2.07.63-3.69,1.86-4.89s2.85-1.81,4.84-1.81,3.61.58,4.84,1.75c1.23,1.15,1.86,2.72,1.86,4.71v1.31h-9.63c0,.79.29,1.41.84,1.88.55.47,1.39.71,2.51.71s1.33-.13,1.81-.39c.5-.26.79-.63.92-1.13h4.03c-.08.5-.26,1.05-.55,1.57-.31.55-.71,1.07-1.26,1.57-.52.5-1.23.92-2.09,1.26s-1.81.5-2.85.5c-2.3,0-4.08-.68-5.29-2.02s-1.83-3.01-1.83-5.02h0ZM296.77,14.76h5.86c0-.55-.24-1.02-.68-1.41-.47-.39-1.2-.58-2.25-.58s-1.78.18-2.22.58c-.44.37-.68.84-.68,1.44h-.03v-.03Z"/>
      <path d="M56.08,26.12v-1.31h187.85v1.31H56.08Z"/>
      <path d="M262.15,26.12v-1.31h53.49v1.31h-53.49Z"/>
    </g>
    <g>
      <path d="M57.89,34.28h4.24c1.02,0,1.86.26,2.46.79s.92,1.23.92,2.12-.16,1.13-.44,1.57c-.31.44-.73.76-1.26.94.65.18,1.15.52,1.52.99s.52,1.05.52,1.73-.31,1.67-.94,2.22-1.49.81-2.59.81h-4.42v-11.17h0ZM62.1,39.31c.76,0,1.36-.18,1.78-.55.42-.37.63-.86.63-1.52s-.21-1.15-.63-1.52c-.42-.37-1.02-.55-1.78-.55h-3.25v4.11h3.25v.03ZM62.26,44.54c.81,0,1.44-.18,1.88-.58s.68-.92.68-1.6-.24-1.23-.68-1.6c-.44-.37-1.1-.58-1.94-.58h-3.38v4.34h3.43,0Z"/>
      <path d="M69.14,34.28h.97v10.26h5.68v.92h-6.65v-11.17h0Z"/>
      <path d="M79.64,44.93c-.86-.5-1.54-1.18-2.04-2.04-.5-.89-.73-1.88-.73-3.01s.24-2.12.73-3.01,1.18-1.57,2.04-2.04c.86-.5,1.86-.73,2.98-.73s2.12.24,3.01.73c.86.5,1.54,1.18,2.04,2.04.47.89.73,1.88.73,3.01s-.24,2.12-.73,3.01-1.15,1.57-2.04,2.04c-.86.5-1.88.73-3.01.73s-2.12-.24-2.98-.73ZM78.46,42.37c.39.73.97,1.31,1.67,1.7.71.39,1.54.6,2.49.6s1.78-.21,2.49-.6c.73-.39,1.28-.97,1.7-1.7.39-.73.6-1.57.6-2.51s-.21-1.78-.6-2.51-.97-1.31-1.7-1.7-1.54-.6-2.49-.6-1.75.21-2.49.6c-.71.39-1.28.97-1.67,1.7s-.6,1.57-.6,2.51.21,1.78.6,2.51Z"/>
      <path d="M93.66,44.93c-.86-.5-1.54-1.18-2.02-2.07-.5-.89-.73-1.88-.73-2.98s.24-2.12.73-2.98c.47-.89,1.15-1.57,2.02-2.07.86-.5,1.83-.73,2.93-.73s2.41.34,3.38,1.05c.97.68,1.65,1.62,2.02,2.8h-1.02c-.31-.89-.86-1.57-1.65-2.09s-1.67-.76-2.7-.76-1.7.21-2.43.6c-.71.39-1.26.97-1.67,1.7-.39.73-.6,1.57-.6,2.51s.21,1.78.6,2.51.94,1.31,1.67,1.7c.71.39,1.52.6,2.43.6s1.99-.26,2.77-.79,1.36-1.26,1.65-2.2h1.02c-.24.79-.6,1.49-1.13,2.09s-1.18,1.05-1.91,1.39c-.73.31-1.54.5-2.43.5s-2.07-.24-2.93-.73v-.05h0Z"/>
      <path d="M105.28,34.28h.97v5.02h1.78c.86,0,1.49-.16,1.94-.44.44-.29.79-.79,1.05-1.47l1.18-3.11h1.02l-1.33,3.51c-.18.47-.39.86-.63,1.18s-.55.58-.89.76l3.32,5.73h-1.13l-3.11-5.39c-.39.1-.86.16-1.41.16h-1.78v5.21h-.97v-11.17h0v.03Z"/>
      <path d="M116.67,34.28h.97v10.26h5.68v.92h-6.65v-11.17h0Z"/>
      <path d="M127.06,41.35l-4.24-7.07h1.13l3.61,6.05,3.59-6.05h1.1l-4.24,7.04v4.13h-.97v-4.11h.03Z"/>
      <path d="M138.94,34.28h3.53c1.31,0,2.3.31,3.04.97s1.07,1.54,1.07,2.7-.37,2.07-1.07,2.7c-.73.65-1.73.97-3.04.97h-2.56v3.82h-.97v-11.17h0v.03ZM142.47,40.75c1.05,0,1.83-.24,2.36-.71s.79-1.15.79-2.07-.26-1.6-.79-2.07c-.52-.47-1.31-.71-2.36-.71h-2.56v5.52h2.56v.03Z"/>
      <path d="M149.64,34.28h4.13c.73,0,1.39.13,1.96.42.55.29.99.68,1.31,1.2s.47,1.13.47,1.83-.26,1.67-.76,2.28c-.52.6-1.2.99-2.09,1.13l3.04,4.27h-1.18l-3.01-4.19h-2.88v4.19h-.97v-11.17.05h-.03ZM153.67,40.33c.89,0,1.57-.24,2.07-.68.5-.44.76-1.07.76-1.88s-.26-1.41-.76-1.86c-.5-.44-1.2-.68-2.07-.68h-3.06v5.13h3.06v-.03Z"/>
      <path d="M162.89,44.93c-.86-.5-1.54-1.18-2.04-2.04-.5-.89-.73-1.88-.73-3.01s.24-2.12.73-3.01c.5-.89,1.18-1.57,2.04-2.04.86-.5,1.86-.73,2.98-.73s2.12.24,3.01.73c.86.5,1.54,1.18,2.04,2.04.47.89.73,1.88.73,3.01s-.24,2.12-.73,3.01c-.5.89-1.15,1.57-2.04,2.04-.86.5-1.88.73-3.01.73s-2.12-.24-2.98-.73ZM161.71,42.37c.39.73.97,1.31,1.67,1.7s1.54.6,2.49.6,1.78-.21,2.49-.6c.73-.39,1.28-.97,1.7-1.7.39-.73.6-1.57.6-2.51s-.21-1.78-.6-2.51-.97-1.31-1.7-1.7-1.54-.6-2.49-.6-1.75.21-2.49.6c-.71.39-1.28.97-1.67,1.7s-.6,1.57-.6,2.51.21,1.78.6,2.51Z"/>
      <path d="M176.89,44.93c-.86-.5-1.52-1.18-2.02-2.07s-.73-1.88-.73-2.98.24-2.12.71-2.98c.47-.89,1.15-1.57,2.02-2.07s1.83-.73,2.9-.73,2.41.34,3.35.99c.97.68,1.62,1.54,1.99,2.64h-1.05c-.34-.84-.89-1.49-1.65-1.96-.73-.47-1.6-.71-2.59-.71s-1.73.21-2.43.6-1.26.97-1.65,1.7-.6,1.57-.6,2.51.21,1.78.6,2.51.94,1.31,1.65,1.7,1.52.6,2.43.6,1.62-.18,2.28-.52c.68-.37,1.2-.86,1.6-1.49s.63-1.36.71-2.17h-4.95v-.92h5.99c0,1.18-.21,2.22-.68,3.14s-1.13,1.65-1.99,2.17-1.83.79-2.96.79-2.07-.24-2.9-.73h-.03v-.03Z"/>
      <path d="M188.69,34.28h4.13c.73,0,1.39.13,1.96.42.55.29.99.68,1.31,1.2s.47,1.13.47,1.83-.26,1.67-.76,2.28c-.52.6-1.2.99-2.09,1.13l3.04,4.27h-1.18l-3.01-4.19h-2.88v4.19h-.97v-11.17.05h-.03ZM192.75,40.33c.89,0,1.57-.24,2.07-.68.5-.44.76-1.07.76-1.88s-.26-1.41-.76-1.86c-.5-.44-1.2-.68-2.07-.68h-3.06v5.13h3.06v-.03Z"/>
      <path d="M203.03,34.28h.92l4.63,11.17h-1.02l-1.18-2.8h-5.81l-1.15,2.8h-1.05l4.63-11.17h.03ZM206.04,41.77l-2.54-6.15-2.51,6.15h5.05Z"/>
      <path d="M211.25,34.28h.92l4.66,6.99,4.66-6.99h.89v11.17h-.97v-9.4l-4.19,6.28h-.81l-4.19-6.28v9.4h-.97v-11.17h0Z"/>
      <path d="M226.43,34.28h.92l4.66,6.99,4.66-6.99h.89v11.17h-.97v-9.4l-4.19,6.28h-.81l-4.19-6.28v9.4h-.97v-11.17h0Z"/>
      <path d="M241.61,34.28h.97v11.17h-.97v-11.17Z"/>
      <path d="M246.66,34.28h.92l6.8,9.5v-9.5h.97v11.17h-.92l-6.8-9.53v9.53h-.97v-11.17h0Z"/>
      <path d="M261.37,44.93c-.86-.5-1.52-1.18-2.02-2.07s-.73-1.88-.73-2.98.24-2.12.71-2.98c.47-.89,1.15-1.57,2.02-2.07.86-.5,1.83-.73,2.9-.73s2.41.34,3.35.99c.97.68,1.62,1.54,1.99,2.64h-1.05c-.34-.84-.89-1.49-1.65-1.96-.73-.47-1.6-.71-2.59-.71s-1.73.21-2.43.6c-.71.39-1.26.97-1.65,1.7s-.6,1.57-.6,2.51.21,1.78.6,2.51.94,1.31,1.65,1.7,1.52.6,2.43.6,1.62-.18,2.28-.52c.68-.37,1.2-.86,1.6-1.49s.63-1.36.71-2.17h-4.95v-.92h5.99c0,1.18-.21,2.22-.68,3.14-.47.92-1.13,1.65-1.99,2.17-.86.52-1.83.79-2.96.79s-2.07-.24-2.9-.73h0l-.03-.03Z"/>
    </g>
    <path class="cls-1" d="M12.64,8.56c-.13.81-.21,2.36-.24,4.63,0,2.25-.16,4.08-.39,5.52s-.71,2.64-1.39,3.66c-.68,1.02-1.67,1.91-2.98,2.75,1.23.76,2.2,1.62,2.9,2.56.71.94,1.18,2.15,1.47,3.61s.42,3.35.42,5.65,0,2.98.1,3.79.24,1.44.47,1.86.52.71.84.84c.29.1.79.24,1.47.34V6.36c-.89.13-1.52.34-1.88.6-.39.29-.65.81-.79,1.62h0v-.03Z"/>
    <path class="cls-2" d="M15.18,43.76c.05,0,.08,0,.1.05v6.2s-.05.03-.08.03c-.39.05-.81.08-1.2.08-1.57,0-2.98-.34-4.24-.99-1.23-.65-2.2-1.6-2.88-2.8-.68-1.2-1.02-2.59-1.05-4.16-.05-2.64-.1-4.76-.16-6.36-.05-1.6-.13-2.64-.24-3.11-.26-1.15-.65-2.04-1.15-2.64-.52-.6-1.18-1.15-2.02-1.65-.84-.52-1.41-.97-1.75-1.39-.34-.42-.52-1.05-.52-1.94,0-1.28.5-2.25,1.52-2.9,1.26-.79,2.15-1.44,2.67-1.99s.92-1.26,1.13-2.12c.21-.86.34-1.81.37-2.83,0-1.02.08-3.45.16-7.33.05-2.41.81-4.32,2.28-5.76,1.47-1.44,3.43-2.15,5.89-2.15s.47,0,.71.03.63.05.63.08v5.21c0,.63.13.97-.31,1.07-.55.13-1.1.16-1.6.5-.39.29-.65.81-.79,1.62s-.21,2.36-.24,4.63c0,2.25-.16,4.08-.39,5.52s-.71,2.64-1.39,3.66c-.68,1.02-1.67,1.91-2.98,2.75,1.23.76,2.2,1.62,2.9,2.56.71.94,1.18,2.15,1.47,3.61s.42,3.35.42,5.65,0,2.98.1,3.79.24,1.44.47,1.86.52.71.84.84c.42.18.89.24,1.33.31,0,0,0,.05,0,.05ZM33.18,43.44c-.34-.13-.6-.42-.84-.84-.24-.42-.39-1.05-.47-1.86s-.1-2.09-.1-3.79-.13-4.19-.42-5.65-.76-2.67-1.47-3.61c-.71-.94-1.65-1.81-2.9-2.56,1.31-.81,2.3-1.73,2.98-2.75.68-1.02,1.15-2.22,1.39-3.66.24-1.44.37-3.27.39-5.52.03-2.3.1-3.85.24-4.63.13-.81.39-1.33.79-1.62.5-.34,1.05-.37,1.6-.5.44-.1.34-.76.31-1.07-.03-.63,0-1.23,0-1.86V.16s-.58-.08-.63-.08c-.24,0-.47-.03-.71-.03-2.46,0-4.4.71-5.89,2.15-1.47,1.44-2.22,3.35-2.28,5.76-.08,3.87-.13,6.33-.16,7.33,0,1.02-.16,1.96-.37,2.83s-.6,1.57-1.13,2.12-1.41,1.2-2.67,1.99c-1.02.65-1.52,1.6-1.52,2.9s.18,1.54.52,1.94c.34.42.94.86,1.75,1.39.84.52,1.49,1.07,2.02,1.65.52.6.89,1.47,1.15,2.64.1.47.18,1.49.24,3.11.05,1.6.1,3.72.16,6.36,0,1.57.37,2.96,1.05,4.16.68,1.2,1.65,2.15,2.88,2.8s2.64.99,4.24.99.81-.03,1.2-.08c.03,0,.05,0,.08-.03,0,0,.03-.05,0-.1v-6.1s-.08-.05-.1-.05c-.44-.08-.92-.16-1.33-.31v-.05h0Z"/>
  </g>
</svg>