<?xml version="1.0" encoding="UTF-8"?>
<svg id="Layer_2" data-name="Layer 2" xmlns="http://www.w3.org/2000/svg" viewBox="0 0 270.07 270.07">
  <defs>
    <style>
      .cls-1, .cls-2 {
        fill: none;
      }

      .cls-3 {
        fill: #ff7c24;
      }

      .cls-2 {
        stroke: #aaa;
        stroke-miterlimit: 10;
        stroke-width: 15px;
      }
    </style>
  </defs>
  <g id="Layer_1-2" data-name="Layer 1">
    <path class="cls-1" d="M139.49,71.94c-.5,3.1-.8,9-.9,17.7,0,8.6-.6,15.6-1.5,21.1s-2.7,10.1-5.3,14c-2.6,3.9-6.4,7.3-11.4,10.5,4.7,2.9,8.4,6.2,11.1,9.8,2.7,3.6,4.5,8.2,5.6,13.8s1.6,12.8,1.6,21.6,0,11.4.4,14.5.9,5.5,1.8,7.1,2,2.7,3.2,3.2c1.1.4,3,.9,5.6,1.3V63.54c-3.4.5-5.8,1.3-7.2,2.3-1.5,1.1-2.5,3.1-3,6.2h0v-.1Z"/>
    <path class="cls-3" d="M126.73,206.39c.2,0,.3,0,.4.2v23.7s-.2.1-.3.1c-1.5.2-3.1.3-4.6.3-6,0-11.4-1.3-16.2-3.8-4.7-2.5-8.4-6.1-11-10.7-2.6-4.6-3.9-9.9-4-15.9-.2-10.1-.4-18.2-.6-24.3-.2-6.1-.5-10.1-.9-11.9-1-4.4-2.5-7.8-4.4-10.1-2-2.3-4.5-4.4-7.7-6.3-3.2-2-5.4-3.7-6.7-5.3-1.3-1.6-2-4-2-7.4,0-4.9,1.9-8.6,5.8-11.1,4.8-3,8.2-5.5,10.2-7.6s3.5-4.8,4.3-8.1c.8-3.3,1.3-6.9,1.4-10.8,0-3.9.3-13.2.6-28,.2-9.2,3.1-16.5,8.7-22,5.6-5.5,13.1-8.2,22.5-8.2s1.8,0,2.7.1,2.4.2,2.4.3v19.9c0,2.4.5,3.7-1.2,4.1-2.1.5-4.2.6-6.1,1.9-1.5,1.1-2.5,3.1-3,6.2s-.8,9-.9,17.7c0,8.6-.6,15.6-1.5,21.1s-2.7,10.1-5.3,14c-2.6,3.9-6.4,7.3-11.4,10.5,4.7,2.9,8.4,6.2,11.1,9.8,2.7,3.6,4.5,8.2,5.6,13.8s1.6,12.8,1.6,21.6,0,11.4.4,14.5.9,5.5,1.8,7.1,2,2.7,3.2,3.2c1.6.7,3.4.9,5.1,1.2,0,0,0,.2,0,.2ZM195.53,205.19c-1.3-.5-2.3-1.6-3.2-3.2-.9-1.6-1.5-4-1.8-7.1s-.4-8-.4-14.5-.5-16-1.6-21.6-2.9-10.2-5.6-13.8c-2.7-3.6-6.3-6.9-11.1-9.8,5-3.1,8.8-6.6,11.4-10.5,2.6-3.9,4.4-8.5,5.3-14,.9-5.5,1.4-12.5,1.5-21.1.1-8.8.4-14.7.9-17.7.5-3.1,1.5-5.1,3-6.2,1.9-1.3,4-1.4,6.1-1.9,1.7-.4,1.3-2.9,1.2-4.1-.1-2.4,0-4.7,0-7.1v-12.8s-2.2-.3-2.4-.3c-.9,0-1.8-.1-2.7-.1-9.4,0-16.8,2.7-22.5,8.2-5.6,5.5-8.5,12.8-8.7,22-.3,14.8-.5,24.2-.6,28,0,3.9-.6,7.5-1.4,10.8s-2.3,6-4.3,8.1-5.4,4.6-10.2,7.6c-3.9,2.5-5.8,6.1-5.8,11.1s.7,5.9,2,7.4c1.3,1.6,3.6,3.3,6.7,5.3,3.2,2,5.7,4.1,7.7,6.3,2,2.3,3.4,5.6,4.4,10.1.4,1.8.7,5.7.9,11.9.2,6.1.4,14.2.6,24.3,0,6,1.4,11.3,4,15.9,2.6,4.6,6.3,8.2,11,10.7s10.1,3.8,16.2,3.8,3.1-.1,4.6-.3c.1,0,.2,0,.3-.1,0,0,.1-.2,0-.4v-23.3c0-.1-.3-.2-.4-.2-1.7-.3-3.5-.6-5.1-1.2v-.2h0Z"/>
    <rect class="cls-2" x="7.5" y="7.5" width="255.07" height="255.07"/>
  </g>
</svg>